<svg width="290" height="60" viewBox="0 0 290 60" fill="none" xmlns="http://www.w3.org/2000/svg">
<rect width="290" height="60" fill="#F6F6F6"/>
<path d="M0 0H260C276.569 0 290 13.4315 290 30V30C290 46.5685 276.569 60 260 60H0V0Z" fill="#FD3D00"/>
<path d="M40 0C23.4583 0 10 13.4583 10 30C10 46.5417 23.4583 60 40 60C56.543 60 70 46.5417 70 30C70 13.4583 56.543 0 40 0ZM40 57.3913C24.8957 57.3913 12.6087 45.1043 12.6087 30C12.6087 14.8957 24.8957 2.6087 40 2.6087C55.103 2.6087 67.3913 14.8957 67.3913 30C67.3913 45.1043 55.103 57.3913 40 57.3913Z" fill="#9A1717"/>
<path d="M33.4782 27.3913C33.4782 25.2339 31.7226 23.4783 29.5652 23.4783C27.4078 23.4783 25.6522 25.2339 25.6522 27.3913C25.6522 29.5487 27.4078 31.3044 29.5652 31.3044C31.7226 31.3044 33.4782 29.5487 33.4782 27.3913ZM28.2609 27.3913C28.2609 26.6726 28.8465 26.087 29.5652 26.087C30.2839 26.087 30.8696 26.6726 30.8696 27.3913C30.8696 28.11 30.2839 28.6957 29.5652 28.6957C28.8465 28.6957 28.2609 28.11 28.2609 27.3913Z" fill="#9A1717"/>
<path d="M50.4348 23.4783C48.2774 23.4783 46.5217 25.2339 46.5217 27.3913C46.5217 29.5487 48.2774 31.3044 50.4348 31.3044C52.5922 31.3044 54.3478 29.5487 54.3478 27.3913C54.3478 25.2339 52.5922 23.4783 50.4348 23.4783ZM50.4348 28.6957C49.7148 28.6957 49.1304 28.11 49.1304 27.3913C49.1304 26.6726 49.7148 26.087 50.4348 26.087C51.1548 26.087 51.7391 26.6726 51.7391 27.3913C51.7391 28.11 51.1548 28.6957 50.4348 28.6957Z" fill="#9A1717"/>
<path d="M45.2187 18.2609C45.4143 18.2609 45.6139 18.2165 45.8004 18.1239L51.0178 15.5152C51.6622 15.1931 51.923 14.4091 51.6009 13.7648C51.2774 13.1204 50.4935 12.8583 49.8504 13.1818L44.633 15.7904C43.9887 16.1126 43.7278 16.8965 44.05 17.5409C44.2795 17.9974 44.74 18.2609 45.2187 18.2609Z" fill="#9A1717"/>
<path d="M28.9822 15.5152L34.1996 18.1239C34.3861 18.2165 34.5857 18.2609 34.7813 18.2609C35.26 18.2609 35.7204 17.9974 35.95 17.5396C36.2722 16.8952 36.0113 16.1113 35.367 15.7891L30.1496 13.1804C29.5026 12.857 28.7213 13.1204 28.3991 13.7635C28.0756 14.4091 28.3378 15.1918 28.9822 15.5152Z" fill="#9A1717"/>
<path d="M40 36.5217C35.1361 36.5217 30.503 38.5826 27.2891 42.1735C26.8091 42.7109 26.8548 43.5352 27.3909 44.0152C27.9283 44.4965 28.7526 44.4496 29.2326 43.9135C31.9535 40.873 35.8769 39.1304 40 39.1304C44.1204 39.1304 48.0452 40.873 50.7674 43.9135C51.0243 44.2017 51.3817 44.3478 51.7391 44.3478C52.0496 44.3478 52.3613 44.2383 52.6091 44.0152C53.1452 43.5339 53.1909 42.7109 52.7109 42.1735C49.4943 38.5813 44.8626 36.5217 40 36.5217Z" fill="#9A1717"/>
<path d="M117.541 34L115.477 28.696H108.685L106.645 34H104.461L111.157 16.792H113.101L119.773 34H117.541ZM114.829 26.776L112.909 21.592C112.861 21.464 112.781 21.232 112.669 20.896C112.557 20.56 112.445 20.216 112.333 19.864C112.237 19.496 112.157 19.216 112.093 19.024C111.981 19.52 111.853 20.008 111.709 20.488C111.565 20.952 111.445 21.32 111.349 21.592L109.405 26.776H114.829ZM128.021 20.896C129.557 20.896 130.717 21.272 131.501 22.024C132.285 22.76 132.677 23.96 132.677 25.624V34H130.589V25.768C130.589 23.704 129.629 22.672 127.709 22.672C126.285 22.672 125.301 23.072 124.757 23.872C124.213 24.672 123.941 25.824 123.941 27.328V34H121.829V21.136H123.533L123.845 22.888H123.965C124.381 22.216 124.957 21.72 125.693 21.4C126.429 21.064 127.205 20.896 128.021 20.896ZM141.225 20.896C142.073 20.896 142.833 21.056 143.505 21.376C144.193 21.696 144.777 22.184 145.257 22.84H145.377L145.665 21.136H147.345V34.216C147.345 36.056 146.873 37.44 145.929 38.368C145.001 39.296 143.553 39.76 141.585 39.76C139.697 39.76 138.153 39.488 136.953 38.944V37C138.217 37.672 139.801 38.008 141.705 38.008C142.809 38.008 143.673 37.68 144.297 37.024C144.937 36.384 145.257 35.504 145.257 34.384V33.88C145.257 33.688 145.265 33.416 145.281 33.064C145.297 32.696 145.313 32.44 145.329 32.296H145.233C144.369 33.592 143.041 34.24 141.249 34.24C139.585 34.24 138.281 33.656 137.337 32.488C136.409 31.32 135.945 29.688 135.945 27.592C135.945 25.544 136.409 23.92 137.337 22.72C138.281 21.504 139.577 20.896 141.225 20.896ZM141.513 22.672C140.441 22.672 139.609 23.104 139.017 23.968C138.425 24.816 138.129 26.032 138.129 27.616C138.129 29.2 138.417 30.416 138.993 31.264C139.585 32.096 140.441 32.512 141.561 32.512C142.857 32.512 143.801 32.168 144.393 31.48C144.985 30.776 145.281 29.648 145.281 28.096V27.592C145.281 25.832 144.977 24.576 144.369 23.824C143.761 23.056 142.809 22.672 141.513 22.672ZM157.431 20.896C157.671 20.896 157.927 20.912 158.199 20.944C158.487 20.96 158.735 20.992 158.943 21.04L158.679 22.984C158.471 22.936 158.239 22.896 157.983 22.864C157.743 22.832 157.511 22.816 157.287 22.816C156.631 22.816 156.015 23 155.439 23.368C154.863 23.72 154.399 24.224 154.047 24.88C153.711 25.52 153.543 26.272 153.543 27.136V34H151.431V21.136H153.159L153.399 23.488H153.495C153.911 22.784 154.447 22.176 155.103 21.664C155.759 21.152 156.535 20.896 157.431 20.896ZM159.329 21.136H161.585L164.369 28.456C164.609 29.096 164.825 29.712 165.017 30.304C165.209 30.88 165.353 31.432 165.449 31.96H165.545C165.641 31.56 165.793 31.04 166.001 30.4C166.209 29.744 166.425 29.088 166.649 28.432L169.265 21.136H171.545L166.001 35.776C165.553 36.992 164.969 37.96 164.249 38.68C163.545 39.4 162.569 39.76 161.321 39.76C160.937 39.76 160.601 39.736 160.313 39.688C160.025 39.656 159.777 39.616 159.569 39.568V37.888C159.745 37.92 159.953 37.952 160.193 37.984C160.449 38.016 160.713 38.032 160.985 38.032C161.721 38.032 162.313 37.824 162.761 37.408C163.225 36.992 163.585 36.44 163.841 35.752L164.513 34.048L159.329 21.136Z" fill="white"/>
<path d="M117.541 34L116.609 34.3626L116.857 35H117.541V34ZM115.477 28.696L116.409 28.3333L116.161 27.696H115.477V28.696ZM108.685 28.696V27.696H107.998L107.752 28.337L108.685 28.696ZM106.645 34V35H107.332L107.578 34.359L106.645 34ZM104.461 34L103.529 33.6374L102.999 35H104.461V34ZM111.157 16.792V15.792H110.473L110.225 16.4294L111.157 16.792ZM113.101 16.792L114.033 16.4305L113.786 15.792H113.101V16.792ZM119.773 34V35H121.233L120.705 33.6385L119.773 34ZM114.829 26.776V27.776H116.266L115.767 26.4287L114.829 26.776ZM112.909 21.592L113.847 21.2447L113.845 21.2409L112.909 21.592ZM112.669 20.896L111.72 21.2122L111.72 21.2122L112.669 20.896ZM112.333 19.864L111.365 20.1164L111.372 20.142L111.38 20.1672L112.333 19.864ZM112.093 19.024L113.042 18.7078L111.907 15.3053L111.117 18.8037L112.093 19.024ZM111.709 20.488L112.664 20.7844L112.667 20.7753L111.709 20.488ZM111.349 21.592L112.285 21.9431L112.289 21.934L112.292 21.9248L111.349 21.592ZM109.405 26.776L108.469 26.4249L107.962 27.776H109.405V26.776ZM118.473 33.6374L116.409 28.3333L114.545 29.0586L116.609 34.3626L118.473 33.6374ZM115.477 27.696H108.685V29.696H115.477V27.696ZM107.752 28.337L105.712 33.641L107.578 34.359L109.618 29.055L107.752 28.337ZM106.645 33H104.461V35H106.645V33ZM105.393 34.3626L112.089 17.1546L110.225 16.4294L103.529 33.6374L105.393 34.3626ZM111.157 17.792H113.101V15.792H111.157V17.792ZM112.169 17.1535L118.841 34.3615L120.705 33.6385L114.033 16.4305L112.169 17.1535ZM119.773 33H117.541V35H119.773V33ZM115.767 26.4287L113.847 21.2447L111.971 21.9393L113.891 27.1233L115.767 26.4287ZM113.845 21.2409C113.805 21.1324 113.73 20.9167 113.618 20.5798L111.72 21.2122C111.832 21.5473 111.917 21.7956 111.973 21.9431L113.845 21.2409ZM113.618 20.5798C113.507 20.2483 113.397 19.9086 113.286 19.5608L111.38 20.1672C111.493 20.5234 111.607 20.8717 111.72 21.2122L113.618 20.5798ZM113.301 19.6116C113.203 19.2372 113.116 18.9317 113.042 18.7078L111.144 19.3402C111.198 19.5003 111.271 19.7548 111.365 20.1164L113.301 19.6116ZM111.117 18.8037C111.011 19.2775 110.888 19.7431 110.751 20.2007L112.667 20.7753C112.818 20.2729 112.951 19.7625 113.068 19.2443L111.117 18.8037ZM110.754 20.1916C110.611 20.6504 110.496 21.0046 110.406 21.2592L112.292 21.9248C112.394 21.6354 112.518 21.2536 112.664 20.7844L110.754 20.1916ZM110.413 21.2409L108.469 26.4249L110.341 27.1271L112.285 21.9431L110.413 21.2409ZM109.405 27.776H114.829V25.776H109.405V27.776ZM131.501 22.024L130.809 22.7457L130.817 22.7531L131.501 22.024ZM132.677 34V35H133.677V34H132.677ZM130.589 34H129.589V35H130.589V34ZM124.757 23.872L125.584 24.4343L125.584 24.4343L124.757 23.872ZM123.941 34V35H124.941V34H123.941ZM121.829 34H120.829V35H121.829V34ZM121.829 21.136V20.136H120.829V21.136H121.829ZM123.533 21.136L124.518 20.9607L124.371 20.136H123.533V21.136ZM123.845 22.888L122.861 23.0633L123.007 23.888H123.845V22.888ZM123.965 22.888V23.888H124.522L124.815 23.4144L123.965 22.888ZM125.693 21.4L126.092 22.3171L126.1 22.3135L126.108 22.3097L125.693 21.4ZM128.021 21.896C129.406 21.896 130.276 22.2348 130.809 22.7457L132.193 21.3023C131.158 20.3092 129.708 19.896 128.021 19.896V21.896ZM130.817 22.7531C131.312 23.2178 131.677 24.0872 131.677 25.624H133.677C133.677 23.8328 133.258 22.3022 132.185 21.2949L130.817 22.7531ZM131.677 25.624V34H133.677V25.624H131.677ZM132.677 33H130.589V35H132.677V33ZM131.589 34V25.768H129.589V34H131.589ZM131.589 25.768C131.589 24.5991 131.319 23.5362 130.601 22.7649C129.871 21.98 128.842 21.672 127.709 21.672V23.672C128.496 23.672 128.907 23.88 129.137 24.1271C129.379 24.3878 129.589 24.8729 129.589 25.768H131.589ZM127.709 21.672C126.12 21.672 124.737 22.1224 123.93 23.3097L125.584 24.4343C125.865 24.0216 126.45 23.672 127.709 23.672V21.672ZM123.93 23.3097C123.227 24.3441 122.941 25.7265 122.941 27.328H124.941C124.941 25.9215 125.199 24.9999 125.584 24.4343L123.93 23.3097ZM122.941 27.328V34H124.941V27.328H122.941ZM123.941 33H121.829V35H123.941V33ZM122.829 34V21.136H120.829V34H122.829ZM121.829 22.136H123.533V20.136H121.829V22.136ZM122.549 21.3113L122.861 23.0633L124.83 22.7127L124.518 20.9607L122.549 21.3113ZM123.845 23.888H123.965V21.888H123.845V23.888ZM124.815 23.4144C125.122 22.9184 125.539 22.5572 126.092 22.3171L125.294 20.4829C124.375 20.8828 123.64 21.5136 123.115 22.3616L124.815 23.4144ZM126.108 22.3097C126.713 22.0337 127.347 21.896 128.021 21.896V19.896C127.063 19.896 126.145 20.0943 125.278 20.4903L126.108 22.3097ZM143.505 21.376L143.075 22.2789L143.083 22.2827L143.505 21.376ZM145.257 22.84L144.45 23.4305L144.75 23.84H145.257V22.84ZM145.377 22.84V23.84H146.222L146.363 23.0066L145.377 22.84ZM145.665 21.136V20.136H144.82L144.679 20.9693L145.665 21.136ZM147.345 21.136H148.345V20.136H147.345V21.136ZM145.929 38.368L145.228 37.6548L145.222 37.6609L145.929 38.368ZM136.953 38.944H135.953V39.5886L136.54 39.8548L136.953 38.944ZM136.953 37L137.422 36.117L135.953 35.3358V37H136.953ZM144.297 37.024L143.59 36.3169L143.581 36.3257L143.572 36.3348L144.297 37.024ZM145.281 33.064L146.28 33.1094L146.28 33.1074L145.281 33.064ZM145.329 32.296L146.323 32.4064L146.446 31.296H145.329V32.296ZM145.233 32.296V31.296H144.698L144.401 31.7413L145.233 32.296ZM137.337 32.488L136.554 33.1101L136.559 33.1166L137.337 32.488ZM137.337 22.72L136.547 22.1068L136.546 22.1083L137.337 22.72ZM139.017 23.968L139.837 24.5404L139.842 24.5332L139.017 23.968ZM138.993 31.264L138.166 31.8259L138.172 31.8349L138.178 31.8438L138.993 31.264ZM144.393 31.48L145.151 32.1323L145.158 32.1236L144.393 31.48ZM144.369 23.824L143.585 24.4447L143.591 24.4527L144.369 23.824ZM141.225 21.896C141.945 21.896 142.555 22.0312 143.075 22.2789L143.935 20.4731C143.111 20.0808 142.201 19.896 141.225 19.896V21.896ZM143.083 22.2827C143.607 22.5265 144.062 22.9007 144.45 23.4305L146.064 22.2495C145.492 21.4673 144.779 20.8655 143.927 20.4693L143.083 22.2827ZM145.257 23.84H145.377V21.84H145.257V23.84ZM146.363 23.0066L146.651 21.3027L144.679 20.9693L144.391 22.6733L146.363 23.0066ZM145.665 22.136H147.345V20.136H145.665V22.136ZM146.345 21.136V34.216H148.345V21.136H146.345ZM146.345 34.216C146.345 35.8945 145.916 36.9784 145.228 37.6549L146.63 39.0811C147.83 37.9016 148.345 36.2175 148.345 34.216H146.345ZM145.222 37.6609C144.557 38.3256 143.419 38.76 141.585 38.76V40.76C143.687 40.76 145.445 40.2664 146.636 39.0751L145.222 37.6609ZM141.585 38.76C139.782 38.76 138.393 38.4987 137.366 38.0332L136.54 39.8548C137.913 40.4773 139.612 40.76 141.585 40.76V38.76ZM137.953 38.944V37H135.953V38.944H137.953ZM136.484 37.883C137.932 38.653 139.689 39.008 141.705 39.008V37.008C139.913 37.008 138.502 36.691 137.422 36.117L136.484 37.883ZM141.705 39.008C143.018 39.008 144.169 38.61 145.022 37.7132L143.572 36.3348C143.177 36.75 142.6 37.008 141.705 37.008V39.008ZM145.004 37.7311C145.874 36.8611 146.257 35.7025 146.257 34.384H144.257C144.257 35.3055 144 35.9069 143.59 36.3169L145.004 37.7311ZM146.257 34.384V33.88H144.257V34.384H146.257ZM146.257 33.88C146.257 33.7108 146.264 33.4565 146.28 33.1094L144.282 33.0186C144.266 33.3755 144.257 33.6652 144.257 33.88H146.257ZM146.28 33.1074C146.296 32.7381 146.311 32.513 146.323 32.4064L144.335 32.1856C144.315 32.367 144.298 32.6539 144.282 33.0206L146.28 33.1074ZM145.329 31.296H145.233V33.296H145.329V31.296ZM144.401 31.7413C143.753 32.7137 142.765 33.24 141.249 33.24V35.24C143.317 35.24 144.985 34.4703 146.065 32.8507L144.401 31.7413ZM141.249 33.24C139.85 33.24 138.847 32.7651 138.115 31.8594L136.559 33.1166C137.715 34.5469 139.32 35.24 141.249 35.24V33.24ZM138.12 31.8659C137.38 30.9342 136.945 29.5519 136.945 27.592H134.945C134.945 29.8241 135.438 31.7058 136.554 33.1101L138.12 31.8659ZM136.945 27.592C136.945 25.6885 137.376 24.3042 138.128 23.3317L136.546 22.1083C135.442 23.5358 134.945 25.3995 134.945 27.592H136.945ZM138.127 23.3332C138.867 22.3805 139.861 21.896 141.225 21.896V19.896C139.293 19.896 137.695 20.6275 136.547 22.1068L138.127 23.3332ZM141.513 21.672C140.12 21.672 138.976 22.2591 138.192 23.4028L139.842 24.5332C140.242 23.9489 140.762 23.672 141.513 23.672V21.672ZM138.197 23.3956C137.441 24.4791 137.129 25.929 137.129 27.616H139.129C139.129 26.135 139.409 25.1529 139.837 24.5404L138.197 23.3956ZM137.129 27.616C137.129 29.2989 137.431 30.7444 138.166 31.8259L139.82 30.7021C139.403 30.0876 139.129 29.1011 139.129 27.616H137.129ZM138.178 31.8438C138.978 32.9679 140.154 33.512 141.561 33.512V31.512C140.728 31.512 140.192 31.2241 139.808 30.6842L138.178 31.8438ZM141.561 33.512C143.02 33.512 144.299 33.1227 145.151 32.1322L143.635 30.8278C143.303 31.2133 142.694 31.512 141.561 31.512V33.512ZM145.158 32.1236C145.976 31.1514 146.281 29.7349 146.281 28.096H144.281C144.281 29.5611 143.994 30.4006 143.628 30.8364L145.158 32.1236ZM146.281 28.096V27.592H144.281V28.096H146.281ZM146.281 27.592C146.281 25.7688 145.976 24.2214 145.147 23.1953L143.591 24.4527C143.978 24.9306 144.281 25.8952 144.281 27.592H146.281ZM145.153 23.2033C144.298 22.1232 143.008 21.672 141.513 21.672V23.672C142.61 23.672 143.224 23.9888 143.585 24.4447L145.153 23.2033ZM158.199 20.944L158.082 21.9372L158.112 21.9408L158.143 21.9425L158.199 20.944ZM158.943 21.04L159.934 21.1746L160.056 20.2707L159.167 20.0656L158.943 21.04ZM158.679 22.984L158.454 23.9584L159.522 24.2049L159.67 23.1186L158.679 22.984ZM157.983 22.864L157.85 23.8553L157.859 23.8563L157.983 22.864ZM155.439 23.368L155.96 24.2213L155.969 24.2161L155.977 24.2107L155.439 23.368ZM154.047 24.88L153.165 24.4072L153.161 24.4152L154.047 24.88ZM153.543 34V35H154.543V34H153.543ZM151.431 34H150.431V35H151.431V34ZM151.431 21.136V20.136H150.431V21.136H151.431ZM153.159 21.136L154.153 21.0345L154.062 20.136H153.159V21.136ZM153.399 23.488L152.404 23.5895L152.495 24.488H153.399V23.488ZM153.495 23.488V24.488H154.065L154.356 23.9967L153.495 23.488ZM155.103 21.664L155.718 22.4523L155.718 22.4523L155.103 21.664ZM157.431 21.896C157.627 21.896 157.843 21.9091 158.082 21.9372L158.315 19.9508C158.01 19.9149 157.715 19.896 157.431 19.896V21.896ZM158.143 21.9425C158.393 21.9563 158.581 21.9828 158.718 22.0144L159.167 20.0656C158.888 20.0012 158.581 19.9637 158.254 19.9455L158.143 21.9425ZM157.952 20.9054L157.688 22.8494L159.67 23.1186L159.934 21.1746L157.952 20.9054ZM158.903 22.0096C158.656 21.9525 158.39 21.9071 158.107 21.8717L157.859 23.8563C158.087 23.8849 158.285 23.9195 158.454 23.9584L158.903 22.0096ZM158.115 21.8728C157.834 21.8354 157.558 21.816 157.287 21.816V23.816C157.463 23.816 157.651 23.8286 157.85 23.8552L158.115 21.8728ZM157.287 21.816C156.432 21.816 155.63 22.0591 154.9 22.5253L155.977 24.2107C156.399 23.9409 156.83 23.816 157.287 23.816V21.816ZM154.917 22.5147C154.174 22.9687 153.593 23.6112 153.165 24.4072L154.928 25.3528C155.205 24.8368 155.551 24.4713 155.96 24.2213L154.917 22.5147ZM153.161 24.4152C152.737 25.224 152.543 26.1415 152.543 27.136H154.543C154.543 26.4025 154.685 25.816 154.932 25.3448L153.161 24.4152ZM152.543 27.136V34H154.543V27.136H152.543ZM153.543 33H151.431V35H153.543V33ZM152.431 34V21.136H150.431V34H152.431ZM151.431 22.136H153.159V20.136H151.431V22.136ZM152.164 21.2375L152.404 23.5895L154.393 23.3865L154.153 21.0345L152.164 21.2375ZM153.399 24.488H153.495V22.488H153.399V24.488ZM154.356 23.9967C154.707 23.4024 155.159 22.8887 155.718 22.4523L154.487 20.8757C153.734 21.4633 153.115 22.1656 152.634 22.9793L154.356 23.9967ZM155.718 22.4523C156.184 22.0883 156.739 21.896 157.431 21.896V19.896C156.33 19.896 155.333 20.2157 154.487 20.8757L155.718 22.4523ZM159.329 21.136V20.136H157.85L158.401 21.5086L159.329 21.136ZM161.585 21.136L162.519 20.7805L162.274 20.136H161.585V21.136ZM164.369 28.456L165.305 28.1049L165.303 28.1005L164.369 28.456ZM165.017 30.304L164.065 30.6125L164.068 30.6202L165.017 30.304ZM165.449 31.96L164.465 32.1389L164.614 32.96H165.449V31.96ZM165.545 31.96V32.96H166.333L166.517 32.1934L165.545 31.96ZM166.001 30.4L166.952 30.7091L166.954 30.7022L166.001 30.4ZM166.649 28.432L165.707 28.0945L165.705 28.1017L165.702 28.1089L166.649 28.432ZM169.265 21.136V20.136H168.561L168.323 20.7985L169.265 21.136ZM171.545 21.136L172.48 21.4901L172.993 20.136H171.545V21.136ZM166.001 35.776L165.065 35.4218L165.062 35.4303L166.001 35.776ZM164.249 38.68L163.542 37.9728L163.534 37.9809L164.249 38.68ZM160.313 39.688L160.477 38.7016L160.45 38.6971L160.423 38.6941L160.313 39.688ZM159.569 39.568H158.569V40.3635L159.344 40.5424L159.569 39.568ZM159.569 37.888L159.748 36.9041L158.569 36.6898V37.888H159.569ZM160.193 37.984L160.061 38.9753L160.069 38.9763L160.193 37.984ZM162.761 37.408L162.093 36.6634L162.087 36.6693L162.08 36.6752L162.761 37.408ZM163.841 35.752L162.91 35.3851L162.907 35.3942L162.903 35.4033L163.841 35.752ZM164.513 34.048L165.443 34.4149L165.589 34.0447L165.441 33.6754L164.513 34.048ZM159.329 22.136H161.585V20.136H159.329V22.136ZM160.65 21.4915L163.434 28.8115L165.303 28.1005L162.519 20.7805L160.65 21.4915ZM163.432 28.8071C163.668 29.4344 163.879 30.0361 164.065 30.6125L165.968 29.9955C165.771 29.3879 165.55 28.7576 165.305 28.1049L163.432 28.8071ZM164.068 30.6202C164.247 31.1571 164.378 31.663 164.465 32.1389L166.433 31.7811C166.327 31.201 166.17 30.6029 165.965 29.9878L164.068 30.6202ZM165.449 32.96H165.545V30.96H165.449V32.96ZM166.517 32.1934C166.604 31.8297 166.747 31.3376 166.952 30.7091L165.05 30.0909C164.838 30.7424 164.677 31.2903 164.572 31.7266L166.517 32.1934ZM166.954 30.7022C167.16 30.0533 167.373 29.4043 167.595 28.7551L165.702 28.1089C165.476 28.7717 165.258 29.4347 165.047 30.0978L166.954 30.7022ZM167.59 28.7695L170.206 21.4735L168.323 20.7985L165.707 28.0945L167.59 28.7695ZM169.265 22.136H171.545V20.136H169.265V22.136ZM170.609 20.7819L165.065 35.4219L166.936 36.1301L172.48 21.4901L170.609 20.7819ZM165.062 35.4303C164.651 36.5463 164.135 37.3791 163.542 37.9729L164.956 39.3871C165.802 38.5409 166.454 37.4377 166.939 36.1217L165.062 35.4303ZM163.534 37.9809C163.061 38.4645 162.368 38.76 161.321 38.76V40.76C162.769 40.76 164.029 40.3355 164.964 39.3791L163.534 37.9809ZM161.321 38.76C160.976 38.76 160.697 38.7382 160.477 38.7016L160.148 40.6744C160.504 40.7338 160.898 40.76 161.321 40.76V38.76ZM160.423 38.6941C160.161 38.665 159.953 38.6305 159.794 38.5936L159.344 40.5424C159.6 40.6015 159.888 40.647 160.202 40.6819L160.423 38.6941ZM160.569 39.568V37.888H158.569V39.568H160.569ZM159.39 38.8719C159.586 38.9075 159.81 38.9418 160.061 38.9752L160.325 36.9928C160.095 36.9622 159.904 36.9325 159.748 36.9041L159.39 38.8719ZM160.069 38.9763C160.368 39.0137 160.673 39.032 160.985 39.032V37.032C160.752 37.032 160.529 37.0183 160.317 36.9917L160.069 38.9763ZM160.985 39.032C161.919 39.032 162.772 38.7623 163.441 38.1408L162.08 36.6752C161.854 36.8857 161.523 37.032 160.985 37.032V39.032ZM163.428 38.1526C164.033 37.6107 164.475 36.9136 164.778 36.1007L162.903 35.4033C162.694 35.9664 162.417 36.3733 162.093 36.6634L163.428 38.1526ZM164.771 36.1189L165.443 34.4149L163.582 33.6811L162.91 35.3851L164.771 36.1189ZM165.441 33.6754L160.257 20.7634L158.401 21.5086L163.585 34.4206L165.441 33.6754Z" fill="white"/>
<path d="M275 28.5L256.25 39.3253V17.6747L275 28.5Z" fill="white"/>
</svg>
