<svg width="290" height="60" viewBox="0 0 290 60" fill="none" xmlns="http://www.w3.org/2000/svg">
<rect width="290" height="60" fill="#F6F6F6"/>
<path d="M0 30C0 13.4315 13.4315 0 30 0H290V60H30C13.4315 60 0 46.5685 0 30V30Z" fill="#00EFFE"/>
<path d="M250 0C233.458 0 220 13.4583 220 30C220 46.5417 233.458 60 250 60C266.542 60 280 46.5417 280 30C280 13.4583 266.542 0 250 0ZM250 57.3913C234.896 57.3913 222.609 45.1043 222.609 30C222.609 14.8957 234.896 2.6087 250 2.6087C265.104 2.6087 277.391 14.8957 277.391 30C277.391 45.1043 265.104 57.3913 250 57.3913Z" fill="#1775D7"/>
<path d="M243.478 24.7826C243.478 22.6252 241.723 20.8696 239.565 20.8696C237.408 20.8696 235.652 22.6252 235.652 24.7826C235.652 26.94 237.408 28.6957 239.565 28.6957C241.723 28.6957 243.478 26.94 243.478 24.7826ZM238.261 24.7826C238.261 24.0639 238.847 23.4783 239.565 23.4783C240.284 23.4783 240.87 24.0639 240.87 24.7826C240.87 25.5013 240.284 26.087 239.565 26.087C238.847 26.087 238.261 25.5013 238.261 24.7826Z" fill="#1775D7"/>
<path d="M260.435 20.8696C258.277 20.8696 256.522 22.6252 256.522 24.7826C256.522 26.94 258.277 28.6957 260.435 28.6957C262.592 28.6957 264.348 26.94 264.348 24.7826C264.348 22.6252 262.592 20.8696 260.435 20.8696ZM260.435 26.087C259.716 26.087 259.13 25.5013 259.13 24.7826C259.13 24.0639 259.716 23.4783 260.435 23.4783C261.153 23.4783 261.739 24.0639 261.739 24.7826C261.739 25.5013 261.153 26.087 260.435 26.087Z" fill="#1775D7"/>
<path d="M262.609 36.8544C262.072 36.3731 261.246 36.42 260.767 36.9561C258.047 39.9965 254.123 41.7391 250 41.7391C245.878 41.7391 241.953 39.9965 239.233 36.9561C238.751 36.42 237.928 36.3731 237.391 36.8544C236.853 37.3344 236.809 38.1587 237.289 38.6961C240.504 42.2883 245.137 44.3478 250 44.3478C254.864 44.3478 259.497 42.287 262.711 38.6961C263.191 38.1587 263.145 37.3344 262.609 36.8544Z" fill="#1775D7"/>
<path d="M143.123 28.952H149.051V37.352C148.123 37.656 147.187 37.88 146.243 38.024C145.299 38.168 144.227 38.24 143.027 38.24C141.251 38.24 139.755 37.888 138.539 37.184C137.323 36.464 136.395 35.448 135.755 34.136C135.131 32.808 134.819 31.24 134.819 29.432C134.819 27.64 135.171 26.088 135.875 24.776C136.579 23.464 137.587 22.448 138.899 21.728C140.227 20.992 141.827 20.624 143.699 20.624C144.659 20.624 145.563 20.712 146.411 20.888C147.275 21.064 148.075 21.312 148.811 21.632L147.995 23.504C147.387 23.232 146.699 23 145.931 22.808C145.179 22.616 144.395 22.52 143.579 22.52C141.531 22.52 139.931 23.136 138.779 24.368C137.643 25.6 137.075 27.288 137.075 29.432C137.075 30.792 137.291 32 137.723 33.056C138.171 34.096 138.867 34.912 139.811 35.504C140.755 36.08 141.995 36.368 143.531 36.368C144.283 36.368 144.923 36.328 145.451 36.248C145.979 36.168 146.459 36.072 146.891 35.96V30.872H143.123V28.952ZM164.04 31.544C164.04 33.672 163.496 35.32 162.408 36.488C161.336 37.656 159.88 38.24 158.04 38.24C156.904 38.24 155.888 37.984 154.992 37.472C154.112 36.944 153.416 36.184 152.904 35.192C152.392 34.184 152.136 32.968 152.136 31.544C152.136 29.416 152.672 27.776 153.744 26.624C154.816 25.472 156.272 24.896 158.112 24.896C159.28 24.896 160.304 25.16 161.184 25.688C162.08 26.2 162.776 26.952 163.272 27.944C163.784 28.92 164.04 30.12 164.04 31.544ZM154.32 31.544C154.32 33.064 154.616 34.272 155.208 35.168C155.816 36.048 156.776 36.488 158.088 36.488C159.384 36.488 160.336 36.048 160.944 35.168C161.552 34.272 161.856 33.064 161.856 31.544C161.856 30.024 161.552 28.832 160.944 27.968C160.336 27.104 159.376 26.672 158.064 26.672C156.752 26.672 155.8 27.104 155.208 27.968C154.616 28.832 154.32 30.024 154.32 31.544ZM178.572 31.544C178.572 33.672 178.028 35.32 176.94 36.488C175.868 37.656 174.412 38.24 172.572 38.24C171.436 38.24 170.42 37.984 169.524 37.472C168.644 36.944 167.948 36.184 167.436 35.192C166.924 34.184 166.668 32.968 166.668 31.544C166.668 29.416 167.204 27.776 168.276 26.624C169.348 25.472 170.804 24.896 172.644 24.896C173.812 24.896 174.836 25.16 175.716 25.688C176.612 26.2 177.308 26.952 177.804 27.944C178.316 28.92 178.572 30.12 178.572 31.544ZM168.852 31.544C168.852 33.064 169.148 34.272 169.74 35.168C170.348 36.048 171.308 36.488 172.62 36.488C173.916 36.488 174.868 36.048 175.476 35.168C176.084 34.272 176.388 33.064 176.388 31.544C176.388 30.024 176.084 28.832 175.476 27.968C174.868 27.104 173.908 26.672 172.596 26.672C171.284 26.672 170.332 27.104 169.74 27.968C169.148 28.832 168.852 30.024 168.852 31.544ZM186.479 38.24C184.879 38.24 183.599 37.688 182.639 36.584C181.679 35.464 181.199 33.8 181.199 31.592C181.199 29.384 181.679 27.72 182.639 26.6C183.615 25.464 184.903 24.896 186.503 24.896C187.495 24.896 188.303 25.08 188.927 25.448C189.567 25.816 190.087 26.264 190.487 26.792H190.631C190.615 26.584 190.583 26.28 190.535 25.88C190.503 25.464 190.487 25.136 190.487 24.896V19.76H192.599V38H190.895L190.583 36.272H190.487C190.103 36.816 189.591 37.28 188.951 37.664C188.311 38.048 187.487 38.24 186.479 38.24ZM186.815 36.488C188.175 36.488 189.127 36.12 189.671 35.384C190.231 34.632 190.511 33.504 190.511 32V31.616C190.511 30.016 190.247 28.792 189.719 27.944C189.191 27.08 188.215 26.648 186.791 26.648C185.655 26.648 184.799 27.104 184.223 28.016C183.663 28.912 183.383 30.12 183.383 31.64C183.383 33.176 183.663 34.368 184.223 35.216C184.799 36.064 185.663 36.488 186.815 36.488Z" fill="white"/>
<path d="M143.123 28.952V27.952H142.123V28.952H143.123ZM149.051 28.952H150.051V27.952H149.051V28.952ZM149.051 37.352L149.363 38.3023L150.051 38.0767V37.352H149.051ZM146.243 38.024L146.093 37.0354L146.093 37.0354L146.243 38.024ZM138.539 37.184L138.03 38.0445L138.038 38.0494L138.539 37.184ZM135.755 34.136L134.85 34.5613L134.854 34.5679L134.857 34.5744L135.755 34.136ZM135.875 24.776L136.757 25.2488L136.757 25.2488L135.875 24.776ZM138.899 21.728L139.381 22.6047L139.384 22.6027L138.899 21.728ZM146.411 20.888L146.208 21.8671L146.212 21.8679L146.411 20.888ZM148.811 21.632L149.728 22.0316L150.128 21.114L149.21 20.7149L148.811 21.632ZM147.995 23.504L147.587 24.4168L148.509 24.8291L148.912 23.9036L147.995 23.504ZM145.931 22.808L145.684 23.7769L145.689 23.7781L145.931 22.808ZM138.779 24.368L138.049 23.685L138.044 23.6901L138.779 24.368ZM137.723 33.056L136.798 33.4346L136.801 33.4432L136.805 33.4516L137.723 33.056ZM139.811 35.504L139.28 36.3513L139.291 36.3576L139.811 35.504ZM145.451 36.248L145.302 35.2593L145.302 35.2593L145.451 36.248ZM146.891 35.96L147.142 36.928L147.891 36.7338V35.96H146.891ZM146.891 30.872H147.891V29.872H146.891V30.872ZM143.123 30.872H142.123V31.872H143.123V30.872ZM143.123 29.952H149.051V27.952H143.123V29.952ZM148.051 28.952V37.352H150.051V28.952H148.051ZM148.74 36.4017C147.863 36.6889 146.981 36.8999 146.093 37.0354L146.394 39.0126C147.394 38.8601 148.384 38.6231 149.363 38.3023L148.74 36.4017ZM146.093 37.0354C145.209 37.1702 144.189 37.24 143.027 37.24V39.24C144.266 39.24 145.39 39.1658 146.394 39.0126L146.093 37.0354ZM143.027 37.24C141.382 37.24 140.069 36.914 139.041 36.3186L138.038 38.0494C139.442 38.862 141.121 39.24 143.027 39.24V37.24ZM139.049 36.3235C138.007 35.7066 137.212 34.84 136.654 33.6976L134.857 34.5744C135.579 36.056 136.64 37.2214 138.03 38.0445L139.049 36.3235ZM136.661 33.7107C136.112 32.543 135.819 31.1264 135.819 29.432H133.819C133.819 31.3536 134.151 33.073 134.85 34.5613L136.661 33.7107ZM135.819 29.432C135.819 27.7716 136.145 26.3886 136.757 25.2488L134.994 24.3032C134.198 25.7874 133.819 27.5084 133.819 29.432H135.819ZM136.757 25.2488C137.369 24.1082 138.237 23.2321 139.381 22.6047L138.418 20.8513C136.938 21.6639 135.79 22.8198 134.994 24.3032L136.757 25.2488ZM139.384 22.6027C140.533 21.9659 141.958 21.624 143.699 21.624V19.624C141.697 19.624 139.922 20.0181 138.415 20.8533L139.384 22.6027ZM143.699 21.624C144.598 21.624 145.434 21.7064 146.208 21.8671L146.615 19.9089C145.693 19.7176 144.72 19.624 143.699 19.624V21.624ZM146.212 21.8679C147.014 22.0313 147.747 22.2595 148.413 22.5491L149.21 20.7149C148.404 20.3645 147.537 20.0967 146.611 19.9081L146.212 21.8679ZM147.895 21.2324L147.079 23.1044L148.912 23.9036L149.728 22.0316L147.895 21.2324ZM148.404 22.5912C147.733 22.2913 146.989 22.0415 146.174 21.8379L145.689 23.7781C146.41 23.9585 147.041 24.1727 147.587 24.4168L148.404 22.5912ZM146.179 21.8391C145.342 21.6254 144.475 21.52 143.579 21.52V23.52C144.316 23.52 145.017 23.6066 145.684 23.7769L146.179 21.8391ZM143.579 21.52C141.319 21.52 139.43 22.2084 138.049 23.685L139.51 25.051C140.433 24.0636 141.744 23.52 143.579 23.52V21.52ZM138.044 23.6901C136.694 25.154 136.075 27.1095 136.075 29.432H138.075C138.075 27.4665 138.592 26.046 139.515 25.0459L138.044 23.6901ZM136.075 29.432C136.075 30.8974 136.308 32.2377 136.798 33.4346L138.649 32.6774C138.275 31.7623 138.075 30.6866 138.075 29.432H136.075ZM136.805 33.4516C137.332 34.6747 138.161 35.6496 139.28 36.3512L140.343 34.6568C139.574 34.1744 139.011 33.5173 138.642 32.6604L136.805 33.4516ZM139.291 36.3576C140.441 37.0596 141.88 37.368 143.531 37.368V35.368C142.111 35.368 141.07 35.1004 140.332 34.6504L139.291 36.3576ZM143.531 37.368C144.315 37.368 145.008 37.3266 145.601 37.2367L145.302 35.2593C144.839 35.3294 144.252 35.368 143.531 35.368V37.368ZM145.601 37.2367C146.157 37.1525 146.671 37.0501 147.142 36.928L146.641 34.992C146.248 35.0939 145.802 35.1835 145.302 35.2593L145.601 37.2367ZM147.891 35.96V30.872H145.891V35.96H147.891ZM146.891 29.872H143.123V31.872H146.891V29.872ZM144.123 30.872V28.952H142.123V30.872H144.123ZM162.408 36.488L161.677 35.8064L161.672 35.8118L162.408 36.488ZM154.992 37.472L154.478 38.3295L154.487 38.335L154.496 38.3402L154.992 37.472ZM152.904 35.192L152.013 35.6449L152.016 35.6506L152.904 35.192ZM153.744 26.624L153.012 25.9428L153.012 25.9428L153.744 26.624ZM161.184 25.688L160.67 26.5455L160.679 26.551L160.688 26.5562L161.184 25.688ZM163.272 27.944L162.378 28.3912L162.382 28.3999L162.387 28.4085L163.272 27.944ZM155.208 35.168L154.374 35.7193L154.38 35.7279L154.386 35.7364L155.208 35.168ZM160.944 35.168L161.767 35.7365L161.772 35.7295L160.944 35.168ZM160.944 27.968L161.762 27.3925L161.762 27.3925L160.944 27.968ZM155.208 27.968L156.033 28.5332L156.033 28.5332L155.208 27.968ZM163.04 31.544C163.04 33.5052 162.541 34.8781 161.677 35.8064L163.14 37.1696C164.451 35.7619 165.04 33.8388 165.04 31.544H163.04ZM161.672 35.8118C160.82 36.7397 159.65 37.24 158.04 37.24V39.24C160.111 39.24 161.853 38.5723 163.145 37.1642L161.672 35.8118ZM158.04 37.24C157.06 37.24 156.219 37.0209 155.489 36.6038L154.496 38.3402C155.558 38.9471 156.748 39.24 158.04 39.24V37.24ZM155.507 36.6145C154.8 36.1905 154.228 35.5753 153.793 34.7334L152.016 35.6506C152.605 36.7927 153.425 37.6975 154.478 38.3295L155.507 36.6145ZM153.796 34.7391C153.371 33.9031 153.136 32.8505 153.136 31.544H151.136C151.136 33.0855 151.413 34.4649 152.013 35.6449L153.796 34.7391ZM153.136 31.544C153.136 29.5782 153.63 28.2151 154.476 27.3052L153.012 25.9428C151.715 27.3369 151.136 29.2538 151.136 31.544H153.136ZM154.476 27.3052C155.327 26.3913 156.499 25.896 158.112 25.896V23.896C156.046 23.896 154.306 24.5527 153.012 25.9428L154.476 27.3052ZM158.112 25.896C159.125 25.896 159.966 26.1231 160.67 26.5455L161.699 24.8305C160.643 24.1969 159.436 23.896 158.112 23.896V25.896ZM160.688 26.5562C161.4 26.9629 161.963 27.562 162.378 28.3912L164.167 27.4968C163.589 26.342 162.761 25.4371 161.681 24.8198L160.688 26.5562ZM162.387 28.4085C162.805 29.2055 163.04 30.236 163.04 31.544H165.04C165.04 30.004 164.764 28.6345 164.158 27.4795L162.387 28.4085ZM153.32 31.544C153.32 33.182 153.638 34.6049 154.374 35.7193L156.043 34.6167C155.595 33.9391 155.32 32.946 155.32 31.544H153.32ZM154.386 35.7364C155.224 36.9494 156.532 37.488 158.088 37.488V35.488C157.021 35.488 156.409 35.1466 156.031 34.5996L154.386 35.7364ZM158.088 37.488C159.634 37.488 160.932 36.9458 161.767 35.7364L160.122 34.5996C159.741 35.1502 159.135 35.488 158.088 35.488V37.488ZM161.772 35.7295C162.529 34.6133 162.856 33.1863 162.856 31.544H160.856C160.856 32.9417 160.576 33.9307 160.117 34.6065L161.772 35.7295ZM162.856 31.544C162.856 29.9047 162.53 28.4842 161.762 27.3925L160.127 28.5435C160.574 29.1798 160.856 30.1433 160.856 31.544H162.856ZM161.762 27.3925C160.921 26.1974 159.613 25.672 158.064 25.672V27.672C159.139 27.672 159.752 28.0106 160.127 28.5435L161.762 27.3925ZM158.064 25.672C156.516 25.672 155.209 26.1974 154.383 27.4028L156.033 28.5332C156.391 28.0106 156.988 27.672 158.064 27.672V25.672ZM154.383 27.4028C153.637 28.4927 153.32 29.909 153.32 31.544H155.32C155.32 30.139 155.596 29.1713 156.033 28.5332L154.383 27.4028ZM176.94 36.488L176.208 35.8064L176.203 35.8118L176.94 36.488ZM169.524 37.472L169.009 38.3295L169.018 38.335L169.028 38.3402L169.524 37.472ZM167.436 35.192L166.544 35.6449L166.547 35.6506L167.436 35.192ZM168.276 26.624L167.544 25.9428L167.544 25.9428L168.276 26.624ZM175.716 25.688L175.201 26.5455L175.21 26.551L175.22 26.5562L175.716 25.688ZM177.804 27.944L176.909 28.3912L176.914 28.3999L176.918 28.4085L177.804 27.944ZM169.74 35.168L168.905 35.7193L168.911 35.7279L168.917 35.7364L169.74 35.168ZM175.476 35.168L176.298 35.7365L176.303 35.7295L175.476 35.168ZM175.476 27.968L176.293 27.3925L176.293 27.3925L175.476 27.968ZM169.74 27.968L170.565 28.5332L170.565 28.5332L169.74 27.968ZM177.572 31.544C177.572 33.5052 177.073 34.8781 176.208 35.8064L177.671 37.1696C178.983 35.7619 179.572 33.8388 179.572 31.544H177.572ZM176.203 35.8118C175.351 36.7397 174.181 37.24 172.572 37.24V39.24C174.642 39.24 176.384 38.5723 177.676 37.1642L176.203 35.8118ZM172.572 37.24C171.592 37.24 170.75 37.0209 170.02 36.6038L169.028 38.3402C170.09 38.9471 171.28 39.24 172.572 39.24V37.24ZM170.038 36.6145C169.331 36.1905 168.759 35.5753 168.324 34.7334L166.547 35.6506C167.137 36.7927 167.956 37.6975 169.009 38.3295L170.038 36.6145ZM168.327 34.7391C167.903 33.9031 167.668 32.8505 167.668 31.544H165.668C165.668 33.0855 165.945 34.4649 166.544 35.6449L168.327 34.7391ZM167.668 31.544C167.668 29.5782 168.161 28.2151 169.008 27.3052L167.544 25.9428C166.246 27.3369 165.668 29.2538 165.668 31.544H167.668ZM169.008 27.3052C169.858 26.3913 171.03 25.896 172.644 25.896V23.896C170.577 23.896 168.837 24.5527 167.544 25.9428L169.008 27.3052ZM172.644 25.896C173.656 25.896 174.497 26.1231 175.201 26.5455L176.23 24.8305C175.174 24.1969 173.967 23.896 172.644 23.896V25.896ZM175.22 26.5562C175.931 26.9629 176.495 27.562 176.909 28.3912L178.698 27.4968C178.121 26.342 177.292 25.4371 176.212 24.8198L175.22 26.5562ZM176.918 28.4085C177.336 29.2055 177.572 30.236 177.572 31.544H179.572C179.572 30.004 179.295 28.6345 178.689 27.4795L176.918 28.4085ZM167.852 31.544C167.852 33.182 168.169 34.6049 168.905 35.7193L170.574 34.6167C170.126 33.9391 169.852 32.946 169.852 31.544H167.852ZM168.917 35.7364C169.755 36.9494 171.064 37.488 172.62 37.488V35.488C171.552 35.488 170.94 35.1466 170.562 34.5996L168.917 35.7364ZM172.62 37.488C174.165 37.488 175.463 36.9458 176.298 35.7364L174.653 34.5996C174.273 35.1502 173.666 35.488 172.62 35.488V37.488ZM176.303 35.7295C177.061 34.6133 177.388 33.1863 177.388 31.544H175.388C175.388 32.9417 175.107 33.9307 174.648 34.6065L176.303 35.7295ZM177.388 31.544C177.388 29.9047 177.062 28.4842 176.293 27.3925L174.658 28.5435C175.106 29.1798 175.388 30.1433 175.388 31.544H177.388ZM176.293 27.3925C175.452 26.1974 174.145 25.672 172.596 25.672V27.672C173.671 27.672 174.283 28.0106 174.658 28.5435L176.293 27.3925ZM172.596 25.672C171.048 25.672 169.741 26.1974 168.915 27.4028L170.565 28.5332C170.923 28.0106 171.52 27.672 172.596 27.672V25.672ZM168.915 27.4028C168.168 28.4927 167.852 29.909 167.852 31.544H169.852C169.852 30.139 170.127 29.1713 170.565 28.5332L168.915 27.4028ZM182.639 36.584L181.88 37.2348L181.884 37.2402L182.639 36.584ZM182.639 26.6L181.88 25.9483L181.88 25.9492L182.639 26.6ZM188.927 25.448L188.419 26.3094L188.428 26.3149L188.927 25.448ZM190.487 26.792L189.69 27.3959L189.99 27.792H190.487V26.792ZM190.631 26.792V27.792H191.711L191.628 26.7153L190.631 26.792ZM190.535 25.88L189.538 25.9567L189.539 25.978L189.542 25.9991L190.535 25.88ZM190.487 19.76V18.76H189.487V19.76H190.487ZM192.599 19.76H193.599V18.76H192.599V19.76ZM192.599 38V39H193.599V38H192.599ZM190.895 38L189.911 38.1777L190.059 39H190.895V38ZM190.583 36.272L191.567 36.0943L191.419 35.272H190.583V36.272ZM190.487 36.272V35.272H189.969L189.67 35.6953L190.487 36.272ZM188.951 37.664L189.465 38.5215L188.951 37.664ZM189.671 35.384L188.869 34.7867L188.867 34.7896L189.671 35.384ZM189.719 27.944L188.866 28.4655L188.87 28.4726L189.719 27.944ZM184.223 28.016L183.377 27.482L183.375 27.486L184.223 28.016ZM184.223 35.216L183.388 35.7671L183.396 35.7779L184.223 35.216ZM186.479 37.24C185.138 37.24 184.144 36.7914 183.394 35.9278L181.884 37.2402C183.053 38.5846 184.62 39.24 186.479 39.24V37.24ZM183.398 35.9332C182.655 35.0658 182.199 33.676 182.199 31.592H180.199C180.199 33.924 180.703 35.8622 181.88 37.2348L183.398 35.9332ZM182.199 31.592C182.199 29.508 182.655 28.1182 183.398 27.2508L181.88 25.9492C180.703 27.3218 180.199 29.26 180.199 31.592H182.199ZM183.397 27.2517C184.169 26.3534 185.172 25.896 186.503 25.896V23.896C184.634 23.896 183.061 24.5746 181.88 25.9483L183.397 27.2517ZM186.503 25.896C187.38 25.896 187.995 26.0596 188.419 26.3094L189.435 24.5866C188.61 24.1004 187.61 23.896 186.503 23.896V25.896ZM188.428 26.3149C188.966 26.6238 189.38 26.9863 189.69 27.3959L191.284 26.1881C190.794 25.5417 190.168 25.0082 189.425 24.5811L188.428 26.3149ZM190.487 27.792H190.631V25.792H190.487V27.792ZM191.628 26.7153C191.61 26.4855 191.576 26.1646 191.528 25.7609L189.542 25.9991C189.59 26.3954 189.62 26.6825 189.634 26.8687L191.628 26.7153ZM191.532 25.8033C191.501 25.3972 191.487 25.0985 191.487 24.896H189.487C189.487 25.1735 189.505 25.5308 189.538 25.9567L191.532 25.8033ZM191.487 24.896V19.76H189.487V24.896H191.487ZM190.487 20.76H192.599V18.76H190.487V20.76ZM191.599 19.76V38H193.599V19.76H191.599ZM192.599 37H190.895V39H192.599V37ZM191.879 37.8223L191.567 36.0943L189.599 36.4497L189.911 38.1777L191.879 37.8223ZM190.583 35.272H190.487V37.272H190.583V35.272ZM189.67 35.6953C189.375 36.1127 188.972 36.4854 188.436 36.8065L189.465 38.5215C190.21 38.0746 190.83 37.5193 191.304 36.8487L189.67 35.6953ZM188.436 36.8065C187.997 37.0701 187.367 37.24 186.479 37.24V39.24C187.607 39.24 188.625 39.0259 189.465 38.5215L188.436 36.8065ZM186.815 37.488C188.331 37.488 189.664 37.0758 190.475 35.9784L188.867 34.7896C188.59 35.1642 188.019 35.488 186.815 35.488V37.488ZM190.473 35.9813C191.218 34.9803 191.511 33.5991 191.511 32H189.511C189.511 33.4089 189.243 34.2837 188.869 34.7867L190.473 35.9813ZM191.511 32V31.616H189.511V32H191.511ZM191.511 31.616C191.511 29.9312 191.237 28.4907 190.568 27.4154L188.87 28.4726C189.256 29.0933 189.511 30.1008 189.511 31.616H191.511ZM190.572 27.4225C189.794 26.1487 188.407 25.648 186.791 25.648V27.648C188.023 27.648 188.588 28.0113 188.866 28.4654L190.572 27.4225ZM186.791 25.648C185.334 25.648 184.148 26.2618 183.377 27.482L185.068 28.55C185.45 27.9462 185.976 27.648 186.791 27.648V25.648ZM183.375 27.486C182.681 28.5961 182.383 30.0105 182.383 31.64H184.383C184.383 30.2295 184.645 29.2279 185.071 28.546L183.375 27.486ZM182.383 31.64C182.383 33.2783 182.678 34.6918 183.388 35.7671L185.057 34.6649C184.647 34.0442 184.383 33.0737 184.383 31.64H182.383ZM183.396 35.7779C184.183 36.9373 185.38 37.488 186.815 37.488V35.488C185.946 35.488 185.415 35.1907 185.05 34.6541L183.396 35.7779Z" fill="white"/>
<path d="M20 30.8253L38.75 20V41.6506L20 30.8253Z" fill="white"/>
</svg>
