<svg width="290" height="60" viewBox="0 0 290 60" fill="none" xmlns="http://www.w3.org/2000/svg">
<rect width="290" height="60" fill="#F6F6F6"/>
<path d="M0 0H260.103C276.615 0 290 13.3853 290 29.8969V29.8969C290 46.4085 276.615 59.7938 260.103 59.7938H0V0Z" fill="#48FA09"/>
<path d="M275 29.5L256.25 40.3253V18.6747L275 29.5Z" fill="white"/>
<path d="M123.662 36H121.502V28.008H112.718V36H110.558V18.864H112.718V26.112H121.502V18.864H123.662V36ZM132.932 22.92C134.5 22.92 135.66 23.264 136.412 23.952C137.164 24.64 137.54 25.736 137.54 27.24V36H136.004L135.596 34.176H135.5C134.94 34.88 134.348 35.4 133.724 35.736C133.116 36.072 132.268 36.24 131.18 36.24C130.012 36.24 129.044 35.936 128.276 35.328C127.508 34.704 127.124 33.736 127.124 32.424C127.124 31.144 127.628 30.16 128.636 29.472C129.644 28.768 131.196 28.384 133.292 28.32L135.476 28.248V27.48C135.476 26.408 135.244 25.664 134.78 25.248C134.316 24.832 133.66 24.624 132.812 24.624C132.14 24.624 131.5 24.728 130.892 24.936C130.284 25.128 129.716 25.352 129.188 25.608L128.54 24.024C129.1 23.72 129.764 23.464 130.532 23.256C131.3 23.032 132.1 22.92 132.932 22.92ZM135.452 29.712L133.556 29.784C131.956 29.848 130.844 30.104 130.22 30.552C129.612 31 129.308 31.632 129.308 32.448C129.308 33.168 129.524 33.696 129.956 34.032C130.404 34.368 130.972 34.536 131.66 34.536C132.748 34.536 133.652 34.24 134.372 33.648C135.092 33.04 135.452 32.112 135.452 30.864V29.712ZM147.633 22.896C149.217 22.896 150.489 23.448 151.449 24.552C152.425 25.656 152.913 27.32 152.913 29.544C152.913 31.736 152.425 33.4 151.449 34.536C150.489 35.672 149.209 36.24 147.609 36.24C146.617 36.24 145.793 36.056 145.137 35.688C144.497 35.304 143.993 34.864 143.625 34.368H143.481C143.513 34.64 143.545 34.984 143.577 35.4C143.609 35.816 143.625 36.176 143.625 36.48V41.76H141.513V23.136H143.241L143.529 24.888H143.625C144.009 24.328 144.513 23.856 145.137 23.472C145.761 23.088 146.593 22.896 147.633 22.896ZM147.249 24.672C145.937 24.672 145.009 25.04 144.465 25.776C143.937 26.512 143.657 27.632 143.625 29.136V29.544C143.625 31.128 143.881 32.352 144.393 33.216C144.921 34.064 145.889 34.488 147.297 34.488C148.081 34.488 148.721 34.272 149.217 33.84C149.729 33.408 150.105 32.824 150.345 32.088C150.601 31.336 150.729 30.48 150.729 29.52C150.729 28.048 150.441 26.872 149.865 25.992C149.305 25.112 148.433 24.672 147.249 24.672ZM162.398 22.896C163.982 22.896 165.254 23.448 166.214 24.552C167.19 25.656 167.678 27.32 167.678 29.544C167.678 31.736 167.19 33.4 166.214 34.536C165.254 35.672 163.974 36.24 162.374 36.24C161.382 36.24 160.558 36.056 159.902 35.688C159.262 35.304 158.758 34.864 158.39 34.368H158.246C158.278 34.64 158.31 34.984 158.342 35.4C158.374 35.816 158.39 36.176 158.39 36.48V41.76H156.278V23.136H158.006L158.294 24.888H158.39C158.774 24.328 159.278 23.856 159.902 23.472C160.526 23.088 161.358 22.896 162.398 22.896ZM162.014 24.672C160.702 24.672 159.774 25.04 159.23 25.776C158.702 26.512 158.422 27.632 158.39 29.136V29.544C158.39 31.128 158.646 32.352 159.158 33.216C159.686 34.064 160.654 34.488 162.062 34.488C162.846 34.488 163.486 34.272 163.982 33.84C164.494 33.408 164.87 32.824 165.11 32.088C165.366 31.336 165.494 30.48 165.494 29.52C165.494 28.048 165.206 26.872 164.63 25.992C164.07 25.112 163.198 24.672 162.014 24.672ZM168.559 23.136H170.815L173.599 30.456C173.839 31.096 174.055 31.712 174.247 32.304C174.439 32.88 174.583 33.432 174.679 33.96H174.775C174.871 33.56 175.023 33.04 175.231 32.4C175.439 31.744 175.655 31.088 175.879 30.432L178.495 23.136H180.775L175.231 37.776C174.783 38.992 174.199 39.96 173.479 40.68C172.775 41.4 171.799 41.76 170.551 41.76C170.167 41.76 169.831 41.736 169.543 41.688C169.255 41.656 169.007 41.616 168.799 41.568V39.888C168.975 39.92 169.183 39.952 169.423 39.984C169.679 40.016 169.943 40.032 170.215 40.032C170.951 40.032 171.543 39.824 171.991 39.408C172.455 38.992 172.815 38.44 173.071 37.752L173.743 36.048L168.559 23.136Z" fill="white"/>
<path d="M123.662 36V37H124.662V36H123.662ZM121.502 36H120.502V37H121.502V36ZM121.502 28.008H122.502V27.008H121.502V28.008ZM112.718 28.008V27.008H111.718V28.008H112.718ZM112.718 36V37H113.718V36H112.718ZM110.558 36H109.558V37H110.558V36ZM110.558 18.864V17.864H109.558V18.864H110.558ZM112.718 18.864H113.718V17.864H112.718V18.864ZM112.718 26.112H111.718V27.112H112.718V26.112ZM121.502 26.112V27.112H122.502V26.112H121.502ZM121.502 18.864V17.864H120.502V18.864H121.502ZM123.662 18.864H124.662V17.864H123.662V18.864ZM123.662 35H121.502V37H123.662V35ZM122.502 36V28.008H120.502V36H122.502ZM121.502 27.008H112.718V29.008H121.502V27.008ZM111.718 28.008V36H113.718V28.008H111.718ZM112.718 35H110.558V37H112.718V35ZM111.558 36V18.864H109.558V36H111.558ZM110.558 19.864H112.718V17.864H110.558V19.864ZM111.718 18.864V26.112H113.718V18.864H111.718ZM112.718 27.112H121.502V25.112H112.718V27.112ZM122.502 26.112V18.864H120.502V26.112H122.502ZM121.502 19.864H123.662V17.864H121.502V19.864ZM122.662 18.864V36H124.662V18.864H122.662ZM136.412 23.952L137.087 23.2142L137.087 23.2142L136.412 23.952ZM137.54 36V37H138.54V36H137.54ZM136.004 36L135.028 36.2183L135.203 37H136.004V36ZM135.596 34.176L136.571 33.9577L136.397 33.176H135.596V34.176ZM135.5 34.176V33.176H135.017L134.717 33.5535L135.5 34.176ZM133.724 35.736L133.249 34.8555L133.24 34.8608L133.724 35.736ZM128.276 35.328L127.645 36.1042L127.655 36.112L128.276 35.328ZM128.636 29.472L129.199 30.298L129.208 30.2918L128.636 29.472ZM133.292 28.32L133.322 29.3195L133.324 29.3195L133.292 28.32ZM135.476 28.248L135.508 29.2475L136.476 29.2156V28.248H135.476ZM134.78 25.248L134.112 25.9926L134.112 25.9926L134.78 25.248ZM130.892 24.936L131.193 25.8896L131.204 25.886L131.215 25.8822L130.892 24.936ZM129.188 25.608L128.262 25.9866L128.665 26.9725L129.624 26.5078L129.188 25.608ZM128.54 24.024L128.062 23.1451L127.275 23.5729L127.614 24.4026L128.54 24.024ZM130.532 23.256L130.793 24.2212L130.802 24.2187L130.812 24.216L130.532 23.256ZM135.452 29.712H136.452V28.6733L135.414 28.7127L135.452 29.712ZM133.556 29.784L133.518 28.7847L133.516 28.7848L133.556 29.784ZM130.22 30.552L129.636 29.7396L129.626 29.7469L130.22 30.552ZM129.956 34.032L129.342 34.8214L129.349 34.8267L129.356 34.832L129.956 34.032ZM134.372 33.648L135.007 34.4205L135.017 34.412L134.372 33.648ZM132.932 23.92C134.38 23.92 135.246 24.2413 135.737 24.6898L137.087 23.2142C136.073 22.2867 134.62 21.92 132.932 21.92V23.92ZM135.737 24.6898C136.2 25.1134 136.54 25.882 136.54 27.24H138.54C138.54 25.59 138.128 24.1666 137.087 23.2142L135.737 24.6898ZM136.54 27.24V36H138.54V27.24H136.54ZM137.54 35H136.004V37H137.54V35ZM136.979 35.7817L136.571 33.9577L134.62 34.3943L135.028 36.2183L136.979 35.7817ZM135.596 33.176H135.5V35.176H135.596V33.176ZM134.717 33.5535C134.219 34.179 133.727 34.5985 133.249 34.8555L134.198 36.6165C134.968 36.2015 135.66 35.581 136.282 34.7985L134.717 33.5535ZM133.24 34.8608C132.841 35.0813 132.185 35.24 131.18 35.24V37.24C132.35 37.24 133.39 37.0627 134.207 36.6112L133.24 34.8608ZM131.18 35.24C130.192 35.24 129.455 34.9865 128.896 34.544L127.655 36.112C128.632 36.8855 129.831 37.24 131.18 37.24V35.24ZM128.906 34.5519C128.443 34.1754 128.124 33.54 128.124 32.424H126.124C126.124 33.932 126.572 35.2326 127.645 36.1041L128.906 34.5519ZM128.124 32.424C128.124 31.4553 128.48 30.7891 129.199 30.2979L128.072 28.646C126.775 29.5309 126.124 30.8327 126.124 32.424H128.124ZM129.208 30.2918C129.98 29.7528 131.299 29.3813 133.322 29.3195L133.261 27.3205C131.092 27.3867 129.307 27.7832 128.063 28.6522L129.208 30.2918ZM133.324 29.3195L135.508 29.2475L135.443 27.2485L133.259 27.3205L133.324 29.3195ZM136.476 28.248V27.48H134.476V28.248H136.476ZM136.476 27.48C136.476 26.3179 136.233 25.2085 135.447 24.5034L134.112 25.9926C134.254 26.1195 134.476 26.4981 134.476 27.48H136.476ZM135.447 24.5034C134.742 23.8716 133.816 23.624 132.812 23.624V25.624C133.503 25.624 133.889 25.7924 134.112 25.9926L135.447 24.5034ZM132.812 23.624C132.034 23.624 131.285 23.7446 130.568 23.9898L131.215 25.8822C131.714 25.7114 132.245 25.624 132.812 25.624V23.624ZM130.59 23.9824C129.94 24.1878 129.327 24.4293 128.751 24.7082L129.624 26.5078C130.105 26.2747 130.627 26.0682 131.193 25.8896L130.59 23.9824ZM130.113 25.2294L129.465 23.6454L127.614 24.4026L128.262 25.9866L130.113 25.2294ZM129.017 24.9029C129.494 24.6438 130.082 24.4137 130.793 24.2212L130.27 22.2908C129.445 22.5143 128.705 22.7962 128.062 23.1451L129.017 24.9029ZM130.812 24.216C131.485 24.0196 132.19 23.92 132.932 23.92V21.92C132.009 21.92 131.114 22.0444 130.252 22.296L130.812 24.216ZM135.414 28.7127L133.518 28.7847L133.593 30.7833L135.489 30.7113L135.414 28.7127ZM133.516 28.7848C131.892 28.8498 130.517 29.1074 129.636 29.7397L130.803 31.3643C131.17 31.1006 132.02 30.8462 133.595 30.7832L133.516 28.7848ZM129.626 29.7469C128.739 30.4004 128.308 31.344 128.308 32.448H130.308C130.308 31.92 130.484 31.5996 130.813 31.3571L129.626 29.7469ZM128.308 32.448C128.308 33.3712 128.593 34.2394 129.342 34.8214L130.569 33.2426C130.454 33.1526 130.308 32.9648 130.308 32.448H128.308ZM129.356 34.832C130.013 35.3252 130.806 35.536 131.66 35.536V33.536C131.137 33.536 130.794 33.4108 130.556 33.232L129.356 34.832ZM131.66 35.536C132.939 35.536 134.079 35.1835 135.007 34.4204L133.736 32.8756C133.224 33.2965 132.557 33.536 131.66 33.536V35.536ZM135.017 34.412C136.029 33.557 136.452 32.3048 136.452 30.864H134.452C134.452 31.9192 134.154 32.523 133.726 32.884L135.017 34.412ZM136.452 30.864V29.712H134.452V30.864H136.452ZM151.449 24.552L150.694 25.2082L150.699 25.2143L151.449 24.552ZM151.449 34.536L150.69 33.8843L150.685 33.8905L151.449 34.536ZM145.137 35.688L144.622 36.5455L144.635 36.553L144.647 36.5601L145.137 35.688ZM143.625 34.368L144.428 33.7722L144.128 33.368H143.625V34.368ZM143.481 34.368V33.368H142.356L142.488 34.4848L143.481 34.368ZM143.577 35.4L142.58 35.4767L142.58 35.4767L143.577 35.4ZM143.625 41.76V42.76H144.625V41.76H143.625ZM141.513 41.76H140.513V42.76H141.513V41.76ZM141.513 23.136V22.136H140.513V23.136H141.513ZM143.241 23.136L144.227 22.9738L144.09 22.136H143.241V23.136ZM143.529 24.888L142.542 25.0502L142.68 25.888H143.529V24.888ZM143.625 24.888V25.888H144.151L144.449 25.4535L143.625 24.888ZM145.137 23.472L145.661 24.3237L145.661 24.3237L145.137 23.472ZM144.465 25.776L143.66 25.1816L143.656 25.1873L143.652 25.1931L144.465 25.776ZM143.625 29.136L142.625 29.1147L142.625 29.1254V29.136H143.625ZM144.393 33.216L143.532 33.7258L143.538 33.7352L143.544 33.7446L144.393 33.216ZM149.217 33.84L148.572 33.0757L148.566 33.0808L148.56 33.0859L149.217 33.84ZM150.345 32.088L149.398 31.7657L149.394 31.778L150.345 32.088ZM149.865 25.992L149.021 26.5289L149.028 26.5397L149.865 25.992ZM147.633 23.896C148.954 23.896 149.941 24.3422 150.694 25.2082L152.203 23.8958C151.036 22.5538 149.479 21.896 147.633 21.896V23.896ZM150.699 25.2143C151.449 26.062 151.913 27.4437 151.913 29.544H153.913C153.913 27.1963 153.4 25.25 152.198 23.8897L150.699 25.2143ZM151.913 29.544C151.913 31.6051 151.452 32.9977 150.69 33.8843L152.207 35.1877C153.397 33.8023 153.913 31.8669 153.913 29.544H151.913ZM150.685 33.8905C149.931 34.783 148.94 35.24 147.609 35.24V37.24C149.478 37.24 151.047 36.561 152.212 35.1815L150.685 33.8905ZM147.609 35.24C146.735 35.24 146.092 35.0775 145.626 34.8159L144.647 36.5601C145.493 37.0345 146.498 37.24 147.609 37.24V35.24ZM145.651 34.8305C145.101 34.5002 144.703 34.1434 144.428 33.7722L142.822 34.9638C143.282 35.5846 143.893 36.1078 144.622 36.5455L145.651 34.8305ZM143.625 33.368H143.481V35.368H143.625V33.368ZM142.488 34.4848C142.517 34.7385 142.548 35.068 142.58 35.4767L144.574 35.3233C144.541 34.9 144.508 34.5415 144.474 34.2512L142.488 34.4848ZM142.58 35.4767C142.61 35.8758 142.625 36.209 142.625 36.48H144.625C144.625 36.143 144.607 35.7562 144.574 35.3233L142.58 35.4767ZM142.625 36.48V41.76H144.625V36.48H142.625ZM143.625 40.76H141.513V42.76H143.625V40.76ZM142.513 41.76V23.136H140.513V41.76H142.513ZM141.513 24.136H143.241V22.136H141.513V24.136ZM142.254 23.2982L142.542 25.0502L144.515 24.7258L144.227 22.9738L142.254 23.2982ZM143.529 25.888H143.625V23.888H143.529V25.888ZM144.449 25.4535C144.748 25.0178 145.146 24.6402 145.661 24.3237L144.613 22.6203C143.879 23.0718 143.269 23.6382 142.8 24.3225L144.449 25.4535ZM145.661 24.3237C146.074 24.0692 146.704 23.896 147.633 23.896V21.896C146.481 21.896 145.447 22.1068 144.613 22.6203L145.661 24.3237ZM147.249 23.672C145.765 23.672 144.465 24.0926 143.66 25.1816L145.269 26.3704C145.552 25.9874 146.108 25.672 147.249 25.672V23.672ZM143.652 25.1931C142.952 26.1694 142.659 27.5293 142.625 29.1147L144.624 29.1573C144.655 27.7347 144.922 26.8546 145.277 26.3589L143.652 25.1931ZM142.625 29.136V29.544H144.625V29.136H142.625ZM142.625 29.544C142.625 31.2132 142.891 32.6428 143.532 33.7258L145.253 32.7062C144.871 32.0612 144.625 31.0428 144.625 29.544H142.625ZM143.544 33.7446C144.324 34.9971 145.699 35.488 147.297 35.488V33.488C146.079 33.488 145.518 33.1309 145.242 32.6874L143.544 33.7446ZM147.297 35.488C148.273 35.488 149.162 35.214 149.873 34.5941L148.56 33.0859C148.28 33.33 147.888 33.488 147.297 33.488V35.488ZM149.862 34.6043C150.537 34.0346 151.007 33.2829 151.295 32.398L149.394 31.778C149.202 32.3651 148.921 32.7814 148.572 33.0757L149.862 34.6043ZM151.291 32.4103C151.589 31.5354 151.729 30.5675 151.729 29.52H149.729C149.729 30.3925 149.612 31.1366 149.398 31.7657L151.291 32.4103ZM151.729 29.52C151.729 27.9282 151.419 26.54 150.701 25.4443L149.028 26.5397C149.463 27.204 149.729 28.1678 149.729 29.52H151.729ZM150.708 25.4551C149.937 24.2435 148.72 23.672 147.249 23.672V25.672C148.145 25.672 148.672 25.9805 149.021 26.5289L150.708 25.4551ZM166.214 24.552L165.46 25.2082L165.465 25.2143L166.214 24.552ZM166.214 34.536L165.456 33.8843L165.45 33.8905L166.214 34.536ZM159.902 35.688L159.388 36.5455L159.4 36.553L159.413 36.5601L159.902 35.688ZM158.39 34.368L159.193 33.7722L158.894 33.368H158.39V34.368ZM158.246 34.368V33.368H157.122L157.253 34.4848L158.246 34.368ZM158.342 35.4L157.345 35.4767L157.345 35.4767L158.342 35.4ZM158.39 41.76V42.76H159.39V41.76H158.39ZM156.278 41.76H155.278V42.76H156.278V41.76ZM156.278 23.136V22.136H155.278V23.136H156.278ZM158.006 23.136L158.993 22.9738L158.855 22.136H158.006V23.136ZM158.294 24.888L157.308 25.0502L157.445 25.888H158.294V24.888ZM158.39 24.888V25.888H158.917L159.215 25.4535L158.39 24.888ZM159.902 23.472L160.426 24.3237L160.426 24.3237L159.902 23.472ZM159.23 25.776L158.426 25.1816L158.422 25.1873L158.418 25.1931L159.23 25.776ZM158.39 29.136L157.391 29.1147L157.39 29.1254V29.136H158.39ZM159.158 33.216L158.298 33.7258L158.304 33.7352L158.309 33.7446L159.158 33.216ZM163.982 33.84L163.337 33.0757L163.331 33.0808L163.326 33.0859L163.982 33.84ZM165.11 32.088L164.164 31.7657L164.16 31.778L165.11 32.088ZM164.63 25.992L163.787 26.5289L163.794 26.5397L164.63 25.992ZM162.398 23.896C163.72 23.896 164.707 24.3422 165.46 25.2082L166.969 23.8958C165.802 22.5538 164.245 21.896 162.398 21.896V23.896ZM165.465 25.2143C166.214 26.062 166.678 27.4437 166.678 29.544H168.678C168.678 27.1963 168.166 25.25 166.963 23.8897L165.465 25.2143ZM166.678 29.544C166.678 31.6051 166.218 32.9977 165.456 33.8843L166.973 35.1877C168.163 33.8023 168.678 31.8669 168.678 29.544H166.678ZM165.45 33.8905C164.696 34.783 163.705 35.24 162.374 35.24V37.24C164.243 37.24 165.812 36.561 166.978 35.1815L165.45 33.8905ZM162.374 35.24C161.501 35.24 160.858 35.0775 160.392 34.8159L159.413 36.5601C160.259 37.0345 161.264 37.24 162.374 37.24V35.24ZM160.417 34.8305C159.866 34.5002 159.469 34.1434 159.193 33.7722L157.587 34.9638C158.048 35.5846 158.658 36.1078 159.388 36.5455L160.417 34.8305ZM158.39 33.368H158.246V35.368H158.39V33.368ZM157.253 34.4848C157.283 34.7385 157.314 35.068 157.345 35.4767L159.339 35.3233C159.307 34.9 159.274 34.5415 159.239 34.2512L157.253 34.4848ZM157.345 35.4767C157.376 35.8758 157.39 36.209 157.39 36.48H159.39C159.39 36.143 159.373 35.7562 159.339 35.3233L157.345 35.4767ZM157.39 36.48V41.76H159.39V36.48H157.39ZM158.39 40.76H156.278V42.76H158.39V40.76ZM157.278 41.76V23.136H155.278V41.76H157.278ZM156.278 24.136H158.006V22.136H156.278V24.136ZM157.02 23.2982L157.308 25.0502L159.281 24.7258L158.993 22.9738L157.02 23.2982ZM158.294 25.888H158.39V23.888H158.294V25.888ZM159.215 25.4535C159.514 25.0178 159.912 24.6402 160.426 24.3237L159.378 22.6203C158.645 23.0718 158.035 23.6382 157.566 24.3225L159.215 25.4535ZM160.426 24.3237C160.84 24.0692 161.47 23.896 162.398 23.896V21.896C161.247 21.896 160.213 22.1068 159.378 22.6203L160.426 24.3237ZM162.014 23.672C160.531 23.672 159.231 24.0926 158.426 25.1816L160.034 26.3704C160.318 25.9874 160.874 25.672 162.014 25.672V23.672ZM158.418 25.1931C157.717 26.1694 157.424 27.5293 157.391 29.1147L159.39 29.1573C159.42 27.7347 159.687 26.8546 160.043 26.3589L158.418 25.1931ZM157.39 29.136V29.544H159.39V29.136H157.39ZM157.39 29.544C157.39 31.2132 157.656 32.6428 158.298 33.7258L160.019 32.7062C159.636 32.0612 159.39 31.0428 159.39 29.544H157.39ZM158.309 33.7446C159.089 34.9971 160.464 35.488 162.062 35.488V33.488C160.844 33.488 160.283 33.1309 160.007 32.6874L158.309 33.7446ZM162.062 35.488C163.039 35.488 163.927 35.214 164.639 34.5941L163.326 33.0859C163.045 33.33 162.654 33.488 162.062 33.488V35.488ZM164.627 34.6043C165.302 34.0346 165.772 33.2829 166.061 32.398L164.16 31.778C163.968 32.3651 163.686 32.7814 163.337 33.0757L164.627 34.6043ZM166.057 32.4103C166.355 31.5354 166.494 30.5675 166.494 29.52H164.494C164.494 30.3925 164.378 31.1366 164.164 31.7657L166.057 32.4103ZM166.494 29.52C166.494 27.9282 166.184 26.54 165.467 25.4443L163.794 26.5397C164.228 27.204 164.494 28.1678 164.494 29.52H166.494ZM165.474 25.4551C164.703 24.2435 163.486 23.672 162.014 23.672V25.672C162.911 25.672 163.438 25.9805 163.787 26.5289L165.474 25.4551ZM168.559 23.136V22.136H167.08L167.631 23.5086L168.559 23.136ZM170.815 23.136L171.75 22.7805L171.505 22.136H170.815V23.136ZM173.599 30.456L174.535 30.1049L174.534 30.1005L173.599 30.456ZM174.247 32.304L173.296 32.6125L173.298 32.6202L174.247 32.304ZM174.679 33.96L173.695 34.1389L173.845 34.96H174.679V33.96ZM174.775 33.96V34.96H175.564L175.748 34.1934L174.775 33.96ZM175.231 32.4L176.182 32.7091L176.184 32.7022L175.231 32.4ZM175.879 30.432L174.938 30.0945L174.935 30.1017L174.933 30.1089L175.879 30.432ZM178.495 23.136V22.136H177.791L177.554 22.7985L178.495 23.136ZM180.775 23.136L181.71 23.4901L182.223 22.136H180.775V23.136ZM175.231 37.776L174.296 37.4218L174.293 37.4303L175.231 37.776ZM173.479 40.68L172.772 39.9728L172.764 39.9809L173.479 40.68ZM169.543 41.688L169.708 40.7016L169.681 40.6971L169.654 40.6941L169.543 41.688ZM168.799 41.568H167.799V42.3635L168.574 42.5424L168.799 41.568ZM168.799 39.888L168.978 38.9041L167.799 38.6898V39.888H168.799ZM169.423 39.984L169.291 40.9753L169.299 40.9763L169.423 39.984ZM171.991 39.408L171.324 38.6634L171.317 38.6693L171.311 38.6752L171.991 39.408ZM173.071 37.752L172.141 37.3851L172.137 37.3942L172.134 37.4033L173.071 37.752ZM173.743 36.048L174.673 36.4149L174.819 36.0447L174.671 35.6754L173.743 36.048ZM168.559 24.136H170.815V22.136H168.559V24.136ZM169.88 23.4915L172.664 30.8115L174.534 30.1005L171.75 22.7805L169.88 23.4915ZM172.663 30.8071C172.898 31.4344 173.109 32.0361 173.296 32.6125L175.198 31.9955C175.001 31.3879 174.78 30.7576 174.535 30.1049L172.663 30.8071ZM173.298 32.6202C173.477 33.1571 173.609 33.663 173.695 34.1389L175.663 33.7811C175.558 33.201 175.401 32.6029 175.196 31.9878L173.298 32.6202ZM174.679 34.96H174.775V32.96H174.679V34.96ZM175.748 34.1934C175.835 33.8297 175.978 33.3376 176.182 32.7091L174.28 32.0909C174.068 32.7424 173.907 33.2903 173.803 33.7266L175.748 34.1934ZM176.184 32.7022C176.39 32.0533 176.604 31.4043 176.826 30.7551L174.933 30.1089C174.706 30.7717 174.488 31.4347 174.278 32.0978L176.184 32.7022ZM176.82 30.7695L179.436 23.4735L177.554 22.7985L174.938 30.0945L176.82 30.7695ZM178.495 24.136H180.775V22.136H178.495V24.136ZM179.84 22.7819L174.296 37.4219L176.166 38.1301L181.71 23.4901L179.84 22.7819ZM174.293 37.4303C173.882 38.5463 173.366 39.3791 172.772 39.9729L174.186 41.3871C175.032 40.5409 175.685 39.4377 176.169 38.1217L174.293 37.4303ZM172.764 39.9809C172.291 40.4645 171.599 40.76 170.551 40.76V42.76C172 42.76 173.259 42.3355 174.194 41.3791L172.764 39.9809ZM170.551 40.76C170.206 40.76 169.927 40.7382 169.708 40.7016L169.379 42.6744C169.735 42.7338 170.128 42.76 170.551 42.76V40.76ZM169.654 40.6941C169.391 40.665 169.184 40.6305 169.024 40.5936L168.574 42.5424C168.831 42.6015 169.119 42.647 169.433 42.6819L169.654 40.6941ZM169.799 41.568V39.888H167.799V41.568H169.799ZM168.62 40.8719C168.816 40.9075 169.04 40.9418 169.291 40.9752L169.555 38.9928C169.326 38.9622 169.134 38.9325 168.978 38.9041L168.62 40.8719ZM169.299 40.9763C169.598 41.0137 169.904 41.032 170.215 41.032V39.032C169.982 39.032 169.76 39.0183 169.547 38.9917L169.299 40.9763ZM170.215 41.032C171.149 41.032 172.002 40.7623 172.672 40.1408L171.311 38.6752C171.084 38.8857 170.753 39.032 170.215 39.032V41.032ZM172.659 40.1526C173.263 39.6107 173.706 38.9136 174.008 38.1007L172.134 37.4033C171.924 37.9664 171.647 38.3733 171.324 38.6634L172.659 40.1526ZM174.001 38.1189L174.673 36.4149L172.813 35.6811L172.141 37.3851L174.001 38.1189ZM174.671 35.6754L169.487 22.7634L167.631 23.5086L172.815 36.4206L174.671 35.6754Z" fill="white"/>
<path d="M50.4348 18.2609C48.2774 18.2609 46.5217 20.0165 46.5217 22.1739C46.5217 24.3313 48.2774 26.087 50.4348 26.087C52.5922 26.087 54.3478 24.3313 54.3478 22.1739C54.3478 20.0165 52.5922 18.2609 50.4348 18.2609ZM50.4348 23.4783C49.7148 23.4783 49.1304 22.8926 49.1304 22.1739C49.1304 21.4552 49.7148 20.8696 50.4348 20.8696C51.1548 20.8696 51.7391 21.4552 51.7391 22.1739C51.7391 22.8926 51.1548 23.4783 50.4348 23.4783Z" fill="#177A1B"/>
<path d="M29.5652 26.087C31.7226 26.087 33.4783 24.3313 33.4783 22.1739C33.4783 20.0165 31.7226 18.2609 29.5652 18.2609C27.4078 18.2609 25.6522 20.0165 25.6522 22.1739C25.6522 24.3313 27.4078 26.087 29.5652 26.087ZM29.5652 20.8696C30.2852 20.8696 30.8696 21.4552 30.8696 22.1739C30.8696 22.8926 30.2852 23.4783 29.5652 23.4783C28.8452 23.4783 28.2609 22.8926 28.2609 22.1739C28.2609 21.4552 28.8452 20.8696 29.5652 20.8696Z" fill="#177A1B"/>
<path d="M40 0C23.457 0 10 13.4583 10 30C10 46.5417 23.457 60 40 60C56.543 60 70 46.5417 70 30C70 13.4583 56.543 0 40 0ZM40 57.3913C24.897 57.3913 12.6087 45.1043 12.6087 30C12.6087 14.8957 24.897 2.6087 40 2.6087C55.103 2.6087 67.3913 14.8957 67.3913 30C67.3913 45.1043 55.103 57.3913 40 57.3913Z" fill="#177A1B"/>
<path d="M53.0435 33.9131H26.9565C26.2352 33.9131 25.6522 34.4974 25.6522 35.2174C25.6522 43.1283 32.0891 49.5652 40 49.5652C47.9109 49.5652 54.3478 43.1283 54.3478 35.2174C54.3478 34.4974 53.7648 33.9131 53.0435 33.9131ZM40 46.9565C33.9674 46.9565 28.9848 42.3835 28.3339 36.5218H51.6661C51.0152 42.3835 46.0326 46.9565 40 46.9565Z" fill="#177A1B"/>
</svg>
