<svg width="290" height="60" viewBox="0 0 290 60" fill="none" xmlns="http://www.w3.org/2000/svg">
<rect width="290" height="60" fill="#F6F6F6"/>
<path d="M0 0H260C276.569 0 290 13.4315 290 30V30C290 46.5685 276.569 60 260 60H0V0Z" fill="#AAB6B1"/>
<path d="M111.31 36L105.67 20.976H105.574C105.622 21.472 105.662 22.144 105.694 22.992C105.726 23.824 105.742 24.696 105.742 25.608V36H103.75V18.864H106.942L112.222 32.904H112.318L117.694 18.864H120.862V36H118.726V25.464C118.726 24.632 118.742 23.808 118.774 22.992C118.822 22.176 118.862 21.512 118.894 21H118.798L113.086 36H111.31ZM130.203 22.896C131.307 22.896 132.251 23.136 133.035 23.616C133.835 24.096 134.443 24.776 134.859 25.656C135.291 26.52 135.507 27.536 135.507 28.704V29.976H126.699C126.731 31.432 127.099 32.544 127.803 33.312C128.523 34.064 129.523 34.44 130.803 34.44C131.619 34.44 132.339 34.368 132.963 34.224C133.603 34.064 134.259 33.84 134.931 33.552V35.4C134.275 35.688 133.627 35.896 132.987 36.024C132.347 36.168 131.587 36.24 130.707 36.24C129.491 36.24 128.411 35.992 127.467 35.496C126.539 35 125.811 34.264 125.283 33.288C124.771 32.296 124.515 31.088 124.515 29.664C124.515 28.256 124.747 27.048 125.211 26.04C125.691 25.032 126.355 24.256 127.203 23.712C128.067 23.168 129.067 22.896 130.203 22.896ZM130.179 24.624C129.171 24.624 128.371 24.952 127.779 25.608C127.203 26.248 126.859 27.144 126.747 28.296H133.299C133.283 27.208 133.027 26.328 132.531 25.656C132.035 24.968 131.251 24.624 130.179 24.624ZM140.894 17.76V23.112C140.894 23.752 140.854 24.352 140.774 24.912H140.918C141.334 24.256 141.894 23.76 142.598 23.424C143.318 23.088 144.094 22.92 144.926 22.92C146.494 22.92 147.67 23.296 148.454 24.048C149.238 24.784 149.63 25.976 149.63 27.624V36H147.542V27.768C147.542 25.704 146.582 24.672 144.662 24.672C143.222 24.672 142.23 25.08 141.686 25.896C141.158 26.696 140.894 27.848 140.894 29.352V36H138.782V17.76H140.894Z" fill="white"/>
<path d="M111.31 36L110.374 36.3515L110.617 37H111.31V36ZM105.67 20.976L106.606 20.6245L106.363 19.976H105.67V20.976ZM105.574 20.976V19.976H104.472L104.579 21.0723L105.574 20.976ZM105.694 22.992L104.695 23.0297L104.695 23.0304L105.694 22.992ZM105.742 36V37H106.742V36H105.742ZM103.75 36H102.75V37H103.75V36ZM103.75 18.864V17.864H102.75V18.864H103.75ZM106.942 18.864L107.878 18.512L107.634 17.864H106.942V18.864ZM112.222 32.904L111.286 33.256L111.53 33.904H112.222V32.904ZM112.318 32.904V33.904H113.006L113.252 33.2616L112.318 32.904ZM117.694 18.864V17.864H117.006L116.76 18.5064L117.694 18.864ZM120.862 18.864H121.862V17.864H120.862V18.864ZM120.862 36V37H121.862V36H120.862ZM118.726 36H117.726V37H118.726V36ZM118.774 22.992L117.776 22.9333L117.775 22.943L117.775 22.9528L118.774 22.992ZM118.894 21L119.892 21.0624L119.958 20H118.894V21ZM118.798 21V20H118.109L117.863 20.6441L118.798 21ZM113.086 36V37H113.775L114.02 36.3559L113.086 36ZM112.246 35.6485L106.606 20.6245L104.734 21.3275L110.374 36.3515L112.246 35.6485ZM105.67 19.976H105.574V21.976H105.67V19.976ZM104.579 21.0723C104.624 21.54 104.663 22.1898 104.695 23.0297L106.693 22.9543C106.661 22.0982 106.62 21.404 106.569 20.8797L104.579 21.0723ZM104.695 23.0304C104.726 23.8485 104.742 24.7076 104.742 25.608H106.742C106.742 24.6844 106.726 23.7995 106.693 22.9536L104.695 23.0304ZM104.742 25.608V36H106.742V25.608H104.742ZM105.742 35H103.75V37H105.742V35ZM104.75 36V18.864H102.75V36H104.75ZM103.75 19.864H106.942V17.864H103.75V19.864ZM106.006 19.216L111.286 33.256L113.158 32.552L107.878 18.512L106.006 19.216ZM112.222 33.904H112.318V31.904H112.222V33.904ZM113.252 33.2616L118.628 19.2216L116.76 18.5064L111.384 32.5464L113.252 33.2616ZM117.694 19.864H120.862V17.864H117.694V19.864ZM119.862 18.864V36H121.862V18.864H119.862ZM120.862 35H118.726V37H120.862V35ZM119.726 36V25.464H117.726V36H119.726ZM119.726 25.464C119.726 24.6448 119.742 23.8339 119.773 23.0312L117.775 22.9528C117.742 23.7821 117.726 24.6192 117.726 25.464H119.726ZM119.772 23.0507C119.82 22.2353 119.86 21.5727 119.892 21.0624L117.896 20.9376C117.864 21.4513 117.824 22.1167 117.776 22.9333L119.772 23.0507ZM118.894 20H118.798V22H118.894V20ZM117.863 20.6441L112.151 35.6441L114.02 36.3559L119.732 21.3559L117.863 20.6441ZM113.086 35H111.31V37H113.086V35ZM133.035 23.616L132.513 24.4689L132.521 24.4735L133.035 23.616ZM134.859 25.656L133.955 26.0834L133.96 26.0933L133.965 26.1032L134.859 25.656ZM135.507 29.976V30.976H136.507V29.976H135.507ZM126.699 29.976V28.976H125.677L125.7 29.998L126.699 29.976ZM127.803 33.312L127.066 33.9877L127.073 33.9957L127.081 34.0036L127.803 33.312ZM132.963 34.224L133.188 35.1984L133.197 35.1963L133.206 35.1941L132.963 34.224ZM134.931 33.552H135.931V32.0355L134.537 32.6329L134.931 33.552ZM134.931 35.4L135.333 36.3156L135.931 36.0531V35.4H134.931ZM132.987 36.024L132.791 35.0434L132.779 35.0458L132.768 35.0484L132.987 36.024ZM127.467 35.496L126.996 36.378L127.002 36.3812L127.467 35.496ZM125.283 33.288L124.395 33.7466L124.399 33.7553L124.404 33.7638L125.283 33.288ZM125.211 26.04L124.308 25.61L124.303 25.6219L125.211 26.04ZM127.203 23.712L126.67 22.8657L126.663 22.8703L127.203 23.712ZM127.779 25.608L127.037 24.938L127.036 24.939L127.779 25.608ZM126.747 28.296L125.752 28.1992L125.645 29.296H126.747V28.296ZM133.299 28.296V29.296H134.314L134.299 28.2813L133.299 28.296ZM132.531 25.656L131.72 26.2408L131.727 26.2499L132.531 25.656ZM130.203 23.896C131.16 23.896 131.915 24.1028 132.513 24.4689L133.557 22.7631C132.587 22.1692 131.454 21.896 130.203 21.896V23.896ZM132.521 24.4735C133.144 24.8472 133.62 25.3739 133.955 26.0834L135.763 25.2286C135.267 24.1781 134.527 23.3448 133.55 22.7585L132.521 24.4735ZM133.965 26.1032C134.314 26.8023 134.507 27.6592 134.507 28.704H136.507C136.507 27.4128 136.268 26.2377 135.754 25.2088L133.965 26.1032ZM134.507 28.704V29.976H136.507V28.704H134.507ZM135.507 28.976H126.699V30.976H135.507V28.976ZM125.7 29.998C125.735 31.6004 126.143 32.9808 127.066 33.9877L128.54 32.6363C128.055 32.1072 127.728 31.2636 127.699 29.954L125.7 29.998ZM127.081 34.0036C128.031 34.9962 129.317 35.44 130.803 35.44V33.44C129.729 33.44 129.015 33.1318 128.526 32.6204L127.081 34.0036ZM130.803 35.44C131.675 35.44 132.474 35.3633 133.188 35.1984L132.738 33.2496C132.205 33.3727 131.563 33.44 130.803 33.44V35.44ZM133.206 35.1941C133.903 35.0199 134.609 34.7779 135.325 34.4711L134.537 32.6329C133.909 32.9021 133.304 33.1081 132.721 33.2539L133.206 35.1941ZM133.931 33.552V35.4H135.931V33.552H133.931ZM134.529 34.4844C133.933 34.7461 133.354 34.9309 132.791 35.0434L133.183 37.0046C133.901 36.8611 134.618 36.6299 135.333 36.3156L134.529 34.4844ZM132.768 35.0484C132.22 35.1718 131.537 35.24 130.707 35.24V37.24C131.638 37.24 132.475 37.1642 133.207 36.9996L132.768 35.0484ZM130.707 35.24C129.63 35.24 128.714 35.0214 127.932 34.6108L127.002 36.3812C128.109 36.9626 129.352 37.24 130.707 37.24V35.24ZM127.939 34.6141C127.193 34.2157 126.603 33.6256 126.163 32.8122L124.404 33.7638C125.02 34.9024 125.885 35.7843 126.996 36.3779L127.939 34.6141ZM126.172 32.8294C125.751 32.0128 125.515 30.9712 125.515 29.664H123.515C123.515 31.2048 123.792 32.5792 124.395 33.7466L126.172 32.8294ZM125.515 29.664C125.515 28.3628 125.73 27.3047 126.12 26.4581L124.303 25.6219C123.765 26.7913 123.515 28.1492 123.515 29.664H125.515ZM126.114 26.4699C126.523 25.6116 127.069 24.9863 127.743 24.5537L126.663 22.8703C125.642 23.5257 124.86 24.4524 124.308 25.6101L126.114 26.4699ZM127.736 24.5582C128.423 24.1258 129.234 23.896 130.203 23.896V21.896C128.901 21.896 127.712 22.2102 126.67 22.8658L127.736 24.5582ZM130.179 23.624C128.932 23.624 127.846 24.0413 127.037 24.938L128.522 26.278C128.896 25.8627 129.41 25.624 130.179 25.624V23.624ZM127.036 24.939C126.275 25.7846 125.878 26.9069 125.752 28.1992L127.743 28.3928C127.841 27.3811 128.132 26.7114 128.523 26.277L127.036 24.939ZM126.747 29.296H133.299V27.296H126.747V29.296ZM134.299 28.2813C134.281 27.0475 133.989 25.9465 133.336 25.0621L131.727 26.2499C132.066 26.7095 132.286 27.3685 132.299 28.3107L134.299 28.2813ZM133.342 25.0712C132.609 24.0543 131.478 23.624 130.179 23.624V25.624C131.024 25.624 131.461 25.8817 131.72 26.2408L133.342 25.0712ZM140.894 17.76H141.894V16.76H140.894V17.76ZM140.774 24.912L139.784 24.7706L139.621 25.912H140.774V24.912ZM140.918 24.912V25.912H141.468L141.763 25.4475L140.918 24.912ZM142.598 23.424L142.175 22.5178L142.167 22.5215L142.598 23.424ZM148.454 24.048L147.762 24.7697L147.77 24.7771L148.454 24.048ZM149.63 36V37H150.63V36H149.63ZM147.542 36H146.542V37H147.542V36ZM141.686 25.896L140.854 25.3413L140.852 25.3452L141.686 25.896ZM140.894 36V37H141.894V36H140.894ZM138.782 36H137.782V37H138.782V36ZM138.782 17.76V16.76H137.782V17.76H138.782ZM139.894 17.76V23.112H141.894V17.76H139.894ZM139.894 23.112C139.894 23.7107 139.857 24.263 139.784 24.7706L141.764 25.0534C141.852 24.441 141.894 23.7933 141.894 23.112H139.894ZM140.774 25.912H140.918V23.912H140.774V25.912ZM141.763 25.4475C142.078 24.951 142.494 24.5819 143.029 24.3265L142.167 22.5215C141.295 22.9381 140.591 23.561 140.074 24.3765L141.763 25.4475ZM143.021 24.3302C143.602 24.0589 144.233 23.92 144.926 23.92V21.92C143.955 21.92 143.034 22.1171 142.175 22.5178L143.021 24.3302ZM144.926 23.92C146.35 23.92 147.233 24.2621 147.762 24.7697L149.146 23.3263C148.108 22.3299 146.638 21.92 144.926 21.92V23.92ZM147.77 24.7771C148.266 25.2434 148.63 26.1067 148.63 27.624H150.63C150.63 25.8453 150.21 24.3246 149.139 23.3189L147.77 24.7771ZM148.63 27.624V36H150.63V27.624H148.63ZM149.63 35H147.542V37H149.63V35ZM148.542 36V27.768H146.542V36H148.542ZM148.542 27.768C148.542 26.5991 148.272 25.5362 147.554 24.7649C146.824 23.98 145.796 23.672 144.662 23.672V25.672C145.449 25.672 145.86 25.88 146.09 26.1271C146.333 26.3878 146.542 26.8729 146.542 27.768H148.542ZM144.662 23.672C143.055 23.672 141.66 24.132 140.854 25.3413L142.518 26.4507C142.8 26.028 143.389 25.672 144.662 25.672V23.672ZM140.852 25.3452C140.17 26.3772 139.894 27.7548 139.894 29.352H141.894C141.894 27.9412 142.146 27.0148 142.521 26.4468L140.852 25.3452ZM139.894 29.352V36H141.894V29.352H139.894ZM140.894 35H138.782V37H140.894V35ZM139.782 36V17.76H137.782V36H139.782ZM138.782 18.76H140.894V16.76H138.782V18.76Z" fill="white"/>
<path d="M275 29.5L256.25 40.3253V18.6747L275 29.5Z" fill="white"/>
<path d="M40 0C23.4583 0 10 13.4583 10 30C10 46.5417 23.4583 60 40 60C56.5417 60 70 46.5417 70 30C70 13.4583 56.5417 0 40 0ZM40 57.3913C24.8957 57.3913 12.6087 45.1043 12.6087 30C12.6087 14.8957 24.8957 2.6087 40 2.6087C55.1043 2.6087 67.3913 14.8957 67.3913 30C67.3913 45.1043 55.1043 57.3913 40 57.3913Z" fill="#666861"/>
<path d="M29.5652 28.6957C31.7226 28.6957 33.4783 26.94 33.4783 24.7826C33.4783 22.6252 31.7226 20.8696 29.5652 20.8696C27.4078 20.8696 25.6522 22.6252 25.6522 24.7826C25.6522 26.94 27.4078 28.6957 29.5652 28.6957ZM29.5652 23.4783C30.2839 23.4783 30.8696 24.0639 30.8696 24.7826C30.8696 25.5013 30.2839 26.087 29.5652 26.087C28.8465 26.087 28.2609 25.5013 28.2609 24.7826C28.2609 24.0639 28.8465 23.4783 29.5652 23.4783Z" fill="#666861"/>
<path d="M50.4348 20.8696C48.2774 20.8696 46.5217 22.6252 46.5217 24.7826C46.5217 26.94 48.2774 28.6957 50.4348 28.6957C52.5922 28.6957 54.3478 26.94 54.3478 24.7826C54.3478 22.6252 52.5922 20.8696 50.4348 20.8696ZM50.4348 26.087C49.7161 26.087 49.1304 25.5013 49.1304 24.7826C49.1304 24.0639 49.7161 23.4783 50.4348 23.4783C51.1535 23.4783 51.7391 24.0639 51.7391 24.7826C51.7391 25.5013 51.1535 26.087 50.4348 26.087Z" fill="#666861"/>
<path d="M53.0435 36.5217H26.9565C26.2365 36.5217 25.6522 37.1061 25.6522 37.8261C25.6522 38.5461 26.2365 39.1304 26.9565 39.1304H53.0435C53.7635 39.1304 54.3478 38.5461 54.3478 37.8261C54.3478 37.1061 53.7635 36.5217 53.0435 36.5217Z" fill="#666861"/>
</svg>
