<svg width="290" height="60" viewBox="0 0 290 60" fill="none" xmlns="http://www.w3.org/2000/svg">
<rect width="290" height="60" fill="#F6F6F6"/>
<path d="M0 30C0 13.4315 13.4315 0 30 0H290V60H30C13.4315 60 0 46.5685 0 30V30Z" fill="#FFB800"/>
<path d="M250 36.5217C245.137 36.5217 240.506 38.5813 237.289 42.1735C236.809 42.7108 236.855 43.5339 237.391 44.0152C237.639 44.2382 237.95 44.3478 238.261 44.3478C238.618 44.3478 238.976 44.2017 239.233 43.9134C241.955 40.873 245.88 39.1304 250 39.1304C254.122 39.1304 258.046 40.873 260.767 43.9134C261.247 44.4508 262.073 44.4952 262.609 44.0152C263.145 43.5352 263.191 42.7108 262.711 42.1735C259.496 38.5826 254.864 36.5217 250 36.5217Z" fill="#B87714"/>
<path d="M250 0C233.457 0 220 13.4583 220 30C220 46.5417 233.457 60 250 60C266.543 60 280 46.5417 280 30C280 13.4583 266.543 0 250 0ZM250 57.3913C234.897 57.3913 222.609 45.1043 222.609 30C222.609 14.8957 234.897 2.6087 250 2.6087C265.103 2.6087 277.391 14.8957 277.391 30C277.391 45.1043 265.103 57.3913 250 57.3913Z" fill="#B87714"/>
<path d="M265.652 20.8696C264.931 20.8696 264.348 21.4539 264.348 22.1739C264.348 24.3313 262.592 26.087 260.435 26.087C258.277 26.087 256.522 24.3313 256.522 22.1739C256.522 21.4539 255.939 20.8696 255.217 20.8696C254.496 20.8696 253.913 21.4539 253.913 22.1739C253.913 25.77 256.839 28.6957 260.435 28.6957C264.031 28.6957 266.957 25.77 266.957 22.1739C266.957 21.4539 266.374 20.8696 265.652 20.8696Z" fill="#B87714"/>
<path d="M246.087 22.1739C246.087 21.4539 245.504 20.8696 244.783 20.8696C244.061 20.8696 243.478 21.4539 243.478 22.1739C243.478 24.3313 241.723 26.087 239.565 26.087C237.408 26.087 235.652 24.3313 235.652 22.1739C235.652 21.4539 235.069 20.8696 234.348 20.8696C233.627 20.8696 233.043 21.4539 233.043 22.1739C233.043 25.77 235.969 28.6957 239.565 28.6957C243.161 28.6957 246.087 25.77 246.087 22.1739Z" fill="#B87714"/>
<path d="M159.353 32.416C159.353 33.936 158.801 35.12 157.697 35.968C156.593 36.816 155.105 37.24 153.233 37.24C152.273 37.24 151.385 37.168 150.569 37.024C149.753 36.88 149.073 36.68 148.529 36.424V34.36C149.105 34.616 149.817 34.848 150.665 35.056C151.529 35.264 152.417 35.368 153.329 35.368C154.609 35.368 155.569 35.12 156.209 34.624C156.865 34.128 157.193 33.456 157.193 32.608C157.193 32.048 157.073 31.576 156.833 31.192C156.593 30.808 156.177 30.456 155.585 30.136C155.009 29.8 154.201 29.448 153.161 29.08C151.705 28.552 150.601 27.904 149.849 27.136C149.113 26.368 148.745 25.32 148.745 23.992C148.745 23.08 148.977 22.304 149.441 21.664C149.905 21.008 150.545 20.504 151.361 20.152C152.193 19.8 153.145 19.624 154.217 19.624C155.161 19.624 156.025 19.712 156.809 19.888C157.593 20.064 158.305 20.296 158.945 20.584L158.273 22.432C157.681 22.176 157.033 21.96 156.329 21.784C155.641 21.608 154.921 21.52 154.169 21.52C153.097 21.52 152.289 21.752 151.745 22.216C151.201 22.664 150.929 23.264 150.929 24.016C150.929 24.592 151.049 25.072 151.289 25.456C151.529 25.84 151.921 26.184 152.465 26.488C153.009 26.792 153.745 27.12 154.673 27.472C155.681 27.84 156.529 28.24 157.217 28.672C157.921 29.088 158.449 29.592 158.801 30.184C159.169 30.776 159.353 31.52 159.353 32.416ZM167.389 23.92C168.957 23.92 170.117 24.264 170.869 24.952C171.621 25.64 171.997 26.736 171.997 28.24V37H170.461L170.053 35.176H169.957C169.397 35.88 168.805 36.4 168.181 36.736C167.573 37.072 166.725 37.24 165.637 37.24C164.469 37.24 163.501 36.936 162.733 36.328C161.965 35.704 161.581 34.736 161.581 33.424C161.581 32.144 162.085 31.16 163.093 30.472C164.101 29.768 165.653 29.384 167.749 29.32L169.933 29.248V28.48C169.933 27.408 169.701 26.664 169.237 26.248C168.773 25.832 168.117 25.624 167.269 25.624C166.597 25.624 165.957 25.728 165.349 25.936C164.741 26.128 164.173 26.352 163.645 26.608L162.997 25.024C163.557 24.72 164.221 24.464 164.989 24.256C165.757 24.032 166.557 23.92 167.389 23.92ZM169.909 30.712L168.013 30.784C166.413 30.848 165.301 31.104 164.677 31.552C164.069 32 163.765 32.632 163.765 33.448C163.765 34.168 163.981 34.696 164.413 35.032C164.861 35.368 165.429 35.536 166.117 35.536C167.205 35.536 168.109 35.24 168.829 34.648C169.549 34.04 169.909 33.112 169.909 31.864V30.712ZM180.53 37.24C178.93 37.24 177.65 36.688 176.69 35.584C175.73 34.464 175.25 32.8 175.25 30.592C175.25 28.384 175.73 26.72 176.69 25.6C177.666 24.464 178.954 23.896 180.554 23.896C181.546 23.896 182.354 24.08 182.978 24.448C183.618 24.816 184.138 25.264 184.538 25.792H184.682C184.666 25.584 184.634 25.28 184.586 24.88C184.554 24.464 184.538 24.136 184.538 23.896V18.76H186.65V37H184.946L184.634 35.272H184.538C184.154 35.816 183.642 36.28 183.002 36.664C182.362 37.048 181.538 37.24 180.53 37.24ZM180.866 35.488C182.226 35.488 183.178 35.12 183.722 34.384C184.282 33.632 184.562 32.504 184.562 31V30.616C184.562 29.016 184.298 27.792 183.77 26.944C183.242 26.08 182.266 25.648 180.842 25.648C179.706 25.648 178.85 26.104 178.274 27.016C177.714 27.912 177.434 29.12 177.434 30.64C177.434 32.176 177.714 33.368 178.274 34.216C178.85 35.064 179.714 35.488 180.866 35.488Z" fill="white"/>
<path d="M157.697 35.968L157.088 35.1749L157.697 35.968ZM150.569 37.024L150.742 36.0392L150.742 36.0392L150.569 37.024ZM148.529 36.424H147.529V37.0586L148.103 37.3288L148.529 36.424ZM148.529 34.36L148.935 33.4462L147.529 32.8212V34.36H148.529ZM150.665 35.056L150.426 36.0272L150.431 36.0282L150.665 35.056ZM156.209 34.624L155.606 33.8263L155.596 33.8336L156.209 34.624ZM156.833 31.192L155.985 31.722L155.985 31.722L156.833 31.192ZM155.585 30.136L155.081 30.9998L155.095 31.008L155.109 31.0157L155.585 30.136ZM153.161 29.08L152.82 30.0201L152.827 30.0227L153.161 29.08ZM149.849 27.136L149.127 27.8279L149.134 27.8356L149.849 27.136ZM149.441 21.664L150.25 22.251L150.257 22.2415L149.441 21.664ZM151.361 20.152L150.971 19.231L150.965 19.2338L151.361 20.152ZM156.809 19.888L157.028 18.9123L157.028 18.9123L156.809 19.888ZM158.945 20.584L159.884 20.9257L160.202 20.0531L159.355 19.6721L158.945 20.584ZM158.273 22.432L157.876 23.3499L158.85 23.7711L159.212 22.7737L158.273 22.432ZM156.329 21.784L156.081 22.7528L156.086 22.7541L156.329 21.784ZM151.745 22.216L152.38 22.9879L152.387 22.9824L152.394 22.9768L151.745 22.216ZM151.289 25.456L152.137 24.926L152.137 24.926L151.289 25.456ZM152.465 26.488L151.977 27.3609L151.977 27.3609L152.465 26.488ZM154.673 27.472L154.318 28.4071L154.33 28.4114L154.673 27.472ZM157.217 28.672L156.685 29.5189L156.696 29.5261L156.708 29.5329L157.217 28.672ZM158.801 30.184L157.941 30.6951L157.946 30.7036L157.951 30.7119L158.801 30.184ZM158.353 32.416C158.353 33.6582 157.92 34.5354 157.088 35.1749L158.306 36.7611C159.681 35.7046 160.353 34.2138 160.353 32.416H158.353ZM157.088 35.1749C156.21 35.8491 154.96 36.24 153.233 36.24V38.24C155.25 38.24 156.976 37.7829 158.306 36.7611L157.088 35.1749ZM153.233 36.24C152.322 36.24 151.493 36.1717 150.742 36.0392L150.395 38.0088C151.276 38.1643 152.223 38.24 153.233 38.24V36.24ZM150.742 36.0392C149.983 35.9052 149.395 35.7263 148.954 35.5192L148.103 37.3288C148.751 37.6337 149.522 37.8548 150.395 38.0088L150.742 36.0392ZM149.529 36.424V34.36H147.529V36.424H149.529ZM148.123 35.2738C148.769 35.5611 149.541 35.81 150.426 36.0272L150.903 34.0848C150.092 33.886 149.44 33.6709 148.935 33.4462L148.123 35.2738ZM150.431 36.0282C151.373 36.2552 152.34 36.368 153.329 36.368V34.368C152.493 34.368 151.684 34.2728 150.899 34.0838L150.431 36.0282ZM153.329 36.368C154.71 36.368 155.93 36.1051 156.821 35.4144L155.596 33.8336C155.207 34.1349 154.507 34.368 153.329 34.368V36.368ZM156.812 35.4217C157.727 34.7299 158.193 33.7579 158.193 32.608H156.193C156.193 33.1541 156.003 33.5261 155.606 33.8263L156.812 35.4217ZM158.193 32.608C158.193 31.9049 158.041 31.2387 157.681 30.662L155.985 31.722C156.104 31.9133 156.193 32.1911 156.193 32.608H158.193ZM157.681 30.662C157.315 30.0767 156.736 29.6215 156.06 29.2563L155.109 31.0157C155.618 31.2905 155.871 31.5393 155.985 31.722L157.681 30.662ZM156.089 29.2722C155.435 28.8909 154.56 28.5145 153.494 28.1373L152.827 30.0227C153.841 30.3815 154.583 30.7091 155.081 30.9998L156.089 29.2722ZM153.502 28.1399C152.129 27.6421 151.174 27.0607 150.563 26.4364L149.134 27.8356C150.027 28.7473 151.28 29.4619 152.82 30.0201L153.502 28.1399ZM150.571 26.4441C150.055 25.9057 149.745 25.1294 149.745 23.992H147.745C147.745 25.5106 148.171 26.8303 149.127 27.8279L150.571 26.4441ZM149.745 23.992C149.745 23.2572 149.928 22.6949 150.25 22.251L148.631 21.077C148.025 21.913 147.745 22.9028 147.745 23.992H149.745ZM150.257 22.2415C150.604 21.7511 151.091 21.3574 151.757 21.0702L150.965 19.2338C149.998 19.6506 149.205 20.2649 148.624 21.0865L150.257 22.2415ZM151.75 21.073C152.438 20.7819 153.254 20.624 154.217 20.624V18.624C153.035 18.624 151.947 18.8181 150.971 19.231L151.75 21.073ZM154.217 20.624C155.099 20.624 155.889 20.7064 156.59 20.8637L157.028 18.9123C156.161 18.7176 155.222 18.624 154.217 18.624V20.624ZM156.59 20.8637C157.317 21.027 157.964 21.2392 158.534 21.4959L159.355 19.6721C158.646 19.3528 157.868 19.101 157.028 18.9123L156.59 20.8637ZM158.005 20.2423L157.333 22.0903L159.212 22.7737L159.884 20.9257L158.005 20.2423ZM158.67 21.5141C158.022 21.2341 157.322 21.0014 156.571 20.8139L156.086 22.7541C156.744 22.9186 157.339 23.1179 157.876 23.3499L158.67 21.5141ZM156.577 20.8152C155.803 20.6173 154.999 20.52 154.169 20.52V22.52C154.842 22.52 155.478 22.5987 156.081 22.7528L156.577 20.8152ZM154.169 20.52C152.974 20.52 151.892 20.7758 151.096 21.4552L152.394 22.9768C152.685 22.7282 153.22 22.52 154.169 22.52V20.52ZM151.109 21.4441C150.317 22.0961 149.929 22.9881 149.929 24.016H151.929C151.929 23.5399 152.084 23.2319 152.38 22.9879L151.109 21.4441ZM149.929 24.016C149.929 24.729 150.078 25.4051 150.441 25.986L152.137 24.926C152.02 24.7389 151.929 24.455 151.929 24.016H149.929ZM150.441 25.986C150.797 26.5565 151.339 27.0042 151.977 27.3609L152.953 25.6151C152.503 25.3638 152.26 25.1235 152.137 24.926L150.441 25.986ZM151.977 27.3609C152.581 27.6986 153.368 28.0465 154.318 28.407L155.027 26.537C154.122 26.1935 153.436 25.8854 152.953 25.6151L151.977 27.3609ZM154.33 28.4114C155.291 28.7624 156.072 29.134 156.685 29.5189L157.748 27.8251C156.985 27.346 156.07 26.9176 155.016 26.5326L154.33 28.4114ZM156.708 29.5329C157.295 29.8796 157.69 30.2721 157.941 30.6951L159.66 29.6729C159.208 28.9119 158.547 28.2964 157.725 27.8111L156.708 29.5329ZM157.951 30.7119C158.196 31.1061 158.353 31.6541 158.353 32.416H160.353C160.353 31.3859 160.141 30.4459 159.65 29.6561L157.951 30.7119ZM170.869 24.952L171.544 24.2142L171.544 24.2142L170.869 24.952ZM171.997 37V38H172.997V37H171.997ZM170.461 37L169.485 37.2183L169.66 38H170.461V37ZM170.053 35.176L171.028 34.9577L170.854 34.176H170.053V35.176ZM169.957 35.176V34.176H169.474L169.174 34.5535L169.957 35.176ZM168.181 36.736L167.706 35.8555L167.697 35.8608L168.181 36.736ZM162.733 36.328L162.102 37.1042L162.112 37.112L162.733 36.328ZM163.093 30.472L163.656 31.298L163.665 31.2918L163.093 30.472ZM167.749 29.32L167.779 30.3195L167.782 30.3195L167.749 29.32ZM169.933 29.248L169.966 30.2475L170.933 30.2156V29.248H169.933ZM169.237 26.248L168.569 26.9926L168.569 26.9926L169.237 26.248ZM165.349 25.936L165.65 26.8896L165.661 26.886L165.672 26.8822L165.349 25.936ZM163.645 26.608L162.719 26.9866L163.122 27.9725L164.081 27.5078L163.645 26.608ZM162.997 25.024L162.519 24.1451L161.732 24.5729L162.071 25.4026L162.997 25.024ZM164.989 24.256L165.25 25.2212L165.259 25.2187L165.269 25.216L164.989 24.256ZM169.909 30.712H170.909V29.6733L169.871 29.7127L169.909 30.712ZM168.013 30.784L167.975 29.7847L167.973 29.7848L168.013 30.784ZM164.677 31.552L164.093 30.7396L164.083 30.7469L164.677 31.552ZM164.413 35.032L163.799 35.8214L163.806 35.8267L163.813 35.832L164.413 35.032ZM168.829 34.648L169.464 35.4205L169.474 35.412L168.829 34.648ZM167.389 24.92C168.837 24.92 169.703 25.2413 170.194 25.6898L171.544 24.2142C170.53 23.2867 169.077 22.92 167.389 22.92V24.92ZM170.194 25.6898C170.657 26.1134 170.997 26.882 170.997 28.24H172.997C172.997 26.59 172.585 25.1666 171.544 24.2142L170.194 25.6898ZM170.997 28.24V37H172.997V28.24H170.997ZM171.997 36H170.461V38H171.997V36ZM171.436 36.7817L171.028 34.9577L169.077 35.3943L169.485 37.2183L171.436 36.7817ZM170.053 34.176H169.957V36.176H170.053V34.176ZM169.174 34.5535C168.676 35.179 168.184 35.5985 167.706 35.8555L168.655 37.6165C169.425 37.2015 170.117 36.581 170.739 35.7985L169.174 34.5535ZM167.697 35.8608C167.298 36.0813 166.642 36.24 165.637 36.24V38.24C166.807 38.24 167.847 38.0627 168.664 37.6112L167.697 35.8608ZM165.637 36.24C164.649 36.24 163.912 35.9865 163.353 35.544L162.112 37.112C163.089 37.8855 164.288 38.24 165.637 38.24V36.24ZM163.363 35.5519C162.9 35.1754 162.581 34.54 162.581 33.424H160.581C160.581 34.932 161.029 36.2326 162.102 37.1041L163.363 35.5519ZM162.581 33.424C162.581 32.4553 162.937 31.7891 163.656 31.2979L162.529 29.646C161.232 30.5309 160.581 31.8327 160.581 33.424H162.581ZM163.665 31.2918C164.437 30.7528 165.756 30.3813 167.779 30.3195L167.718 28.3205C165.549 28.3867 163.764 28.7832 162.52 29.6522L163.665 31.2918ZM167.782 30.3195L169.966 30.2475L169.9 28.2485L167.716 28.3205L167.782 30.3195ZM170.933 29.248V28.48H168.933V29.248H170.933ZM170.933 28.48C170.933 27.3179 170.69 26.2085 169.904 25.5034L168.569 26.9926C168.711 27.1195 168.933 27.4981 168.933 28.48H170.933ZM169.904 25.5034C169.199 24.8716 168.273 24.624 167.269 24.624V26.624C167.96 26.624 168.346 26.7924 168.569 26.9926L169.904 25.5034ZM167.269 24.624C166.492 24.624 165.742 24.7446 165.025 24.9898L165.672 26.8822C166.171 26.7114 166.702 26.624 167.269 26.624V24.624ZM165.047 24.9824C164.397 25.1878 163.784 25.4293 163.208 25.7082L164.081 27.5078C164.562 27.2747 165.084 27.0682 165.65 26.8896L165.047 24.9824ZM164.57 26.2294L163.922 24.6454L162.071 25.4026L162.719 26.9866L164.57 26.2294ZM163.474 25.9029C163.951 25.6438 164.539 25.4137 165.25 25.2212L164.727 23.2908C163.902 23.5143 163.162 23.7962 162.519 24.1451L163.474 25.9029ZM165.269 25.216C165.942 25.0196 166.648 24.92 167.389 24.92V22.92C166.466 22.92 165.571 23.0444 164.709 23.296L165.269 25.216ZM169.871 29.7127L167.975 29.7847L168.051 31.7833L169.947 31.7113L169.871 29.7127ZM167.973 29.7848C166.349 29.8498 164.974 30.1074 164.093 30.7397L165.26 32.3643C165.627 32.1006 166.477 31.8462 168.053 31.7832L167.973 29.7848ZM164.083 30.7469C163.197 31.4004 162.765 32.344 162.765 33.448H164.765C164.765 32.92 164.941 32.5996 165.27 32.3571L164.083 30.7469ZM162.765 33.448C162.765 34.3712 163.05 35.2394 163.799 35.8214L165.027 34.2426C164.911 34.1526 164.765 33.9648 164.765 33.448H162.765ZM163.813 35.832C164.47 36.3252 165.263 36.536 166.117 36.536V34.536C165.594 34.536 165.251 34.4108 165.013 34.232L163.813 35.832ZM166.117 36.536C167.396 36.536 168.536 36.1835 169.464 35.4204L168.193 33.8756C167.681 34.2965 167.014 34.536 166.117 34.536V36.536ZM169.474 35.412C170.486 34.557 170.909 33.3048 170.909 31.864H168.909C168.909 32.9192 168.611 33.523 168.183 33.884L169.474 35.412ZM170.909 31.864V30.712H168.909V31.864H170.909ZM176.69 35.584L175.93 36.2348L175.935 36.2402L176.69 35.584ZM176.69 25.6L175.931 24.9483L175.93 24.9492L176.69 25.6ZM182.978 24.448L182.47 25.3094L182.479 25.3149L182.978 24.448ZM184.538 25.792L183.741 26.3959L184.041 26.792H184.538V25.792ZM184.682 25.792V26.792H185.762L185.679 25.7153L184.682 25.792ZM184.586 24.88L183.589 24.9567L183.59 24.978L183.593 24.9991L184.586 24.88ZM184.538 18.76V17.76H183.538V18.76H184.538ZM186.65 18.76H187.65V17.76H186.65V18.76ZM186.65 37V38H187.65V37H186.65ZM184.946 37L183.962 37.1777L184.11 38H184.946V37ZM184.634 35.272L185.618 35.0943L185.469 34.272H184.634V35.272ZM184.538 35.272V34.272H184.02L183.721 34.6953L184.538 35.272ZM183.002 36.664L183.516 37.5215L183.002 36.664ZM183.722 34.384L182.92 33.7867L182.918 33.7896L183.722 34.384ZM183.77 26.944L182.916 27.4655L182.921 27.4726L183.77 26.944ZM178.274 27.016L177.428 26.482L177.426 26.486L178.274 27.016ZM178.274 34.216L177.439 34.7671L177.446 34.7779L178.274 34.216ZM180.53 36.24C179.189 36.24 178.195 35.7914 177.444 34.9278L175.935 36.2402C177.104 37.5846 178.671 38.24 180.53 38.24V36.24ZM177.449 34.9332C176.705 34.0658 176.25 32.676 176.25 30.592H174.25C174.25 32.924 174.754 34.8622 175.93 36.2348L177.449 34.9332ZM176.25 30.592C176.25 28.508 176.705 27.1182 177.449 26.2508L175.93 24.9492C174.754 26.3218 174.25 28.26 174.25 30.592H176.25ZM177.448 26.2517C178.22 25.3534 179.223 24.896 180.554 24.896V22.896C178.685 22.896 177.111 23.5746 175.931 24.9483L177.448 26.2517ZM180.554 24.896C181.43 24.896 182.046 25.0596 182.47 25.3094L183.486 23.5866C182.661 23.1004 181.661 22.896 180.554 22.896V24.896ZM182.479 25.3149C183.016 25.6238 183.43 25.9863 183.741 26.3959L185.335 25.1881C184.845 24.5417 184.219 24.0082 183.476 23.5811L182.479 25.3149ZM184.538 26.792H184.682V24.792H184.538V26.792ZM185.679 25.7153C185.661 25.4855 185.627 25.1646 185.579 24.7609L183.593 24.9991C183.64 25.3954 183.67 25.6825 183.685 25.8687L185.679 25.7153ZM185.583 24.8033C185.552 24.3972 185.538 24.0985 185.538 23.896H183.538C183.538 24.1735 183.556 24.5308 183.589 24.9567L185.583 24.8033ZM185.538 23.896V18.76H183.538V23.896H185.538ZM184.538 19.76H186.65V17.76H184.538V19.76ZM185.65 18.76V37H187.65V18.76H185.65ZM186.65 36H184.946V38H186.65V36ZM185.93 36.8223L185.618 35.0943L183.65 35.4497L183.962 37.1777L185.93 36.8223ZM184.634 34.272H184.538V36.272H184.634V34.272ZM183.721 34.6953C183.426 35.1127 183.022 35.4854 182.487 35.8065L183.516 37.5215C184.261 37.0746 184.881 36.5193 185.355 35.8487L183.721 34.6953ZM182.487 35.8065C182.048 36.0701 181.418 36.24 180.53 36.24V38.24C181.658 38.24 182.675 38.0259 183.516 37.5215L182.487 35.8065ZM180.866 36.488C182.382 36.488 183.715 36.0758 184.526 34.9784L182.918 33.7896C182.641 34.1642 182.069 34.488 180.866 34.488V36.488ZM184.524 34.9813C185.269 33.9803 185.562 32.5991 185.562 31H183.562C183.562 32.4089 183.294 33.2837 182.92 33.7867L184.524 34.9813ZM185.562 31V30.616H183.562V31H185.562ZM185.562 30.616C185.562 28.9312 185.288 27.4907 184.619 26.4154L182.921 27.4726C183.307 28.0933 183.562 29.1008 183.562 30.616H185.562ZM184.623 26.4225C183.844 25.1487 182.458 24.648 180.842 24.648V26.648C182.074 26.648 182.639 27.0113 182.916 27.4654L184.623 26.4225ZM180.842 24.648C179.385 24.648 178.199 25.2618 177.428 26.482L179.119 27.55C179.501 26.9462 180.027 26.648 180.842 26.648V24.648ZM177.426 26.486C176.732 27.5961 176.434 29.0105 176.434 30.64H178.434C178.434 29.2295 178.695 28.2279 179.122 27.546L177.426 26.486ZM176.434 30.64C176.434 32.2783 176.729 33.6918 177.439 34.7671L179.108 33.6649C178.698 33.0442 178.434 32.0737 178.434 30.64H176.434ZM177.446 34.7779C178.234 35.9373 179.43 36.488 180.866 36.488V34.488C179.997 34.488 179.465 34.1907 179.101 33.6541L177.446 34.7779Z" fill="white"/>
<path d="M15 29.8253L33.75 19V40.6506L15 29.8253Z" fill="white"/>
</svg>
